<svg width="300" height="300" xmlns="http://www.w3.org/2000/svg"><g fill="#000" fill-rule="nonzero"><path d="M295 55h-15V40c0-3-2-5-5-5H170c-8 0-15 4-20 10-5-6-12-10-20-10H25c-3 0-5 2-5 5v15H5c-3 0-5 2-5 5v200c0 3 2 5 5 5h290c3 0 5-2 5-5V60c0-3-2-5-5-5zM10 255V65h10v175c0 3 2 5 5 5h105c6 0 12 4 14 10H10zm135-15c-4-3-10-5-15-5H30V45h100c8 0 15 7 15 15v180zm10-180c0-8 7-15 15-15h100v190H170c-5 0-11 2-15 5V60zm135 5v190H156c2-6 8-10 14-10h105c3 0 5-2 5-5V65h10zm-59 41v101l-18 17-17-17V106h35zm-7-33h1l4 2 2 5v16h-34V80l2-5 4-2h21z"/><path d="M40 60h95v10H40zM40 80h55v10H40zM105 80h31v10h-31zM40 100h20v10H40zM70 100h65v10H70z"/></g></svg>