<svg width="300" height="338" xmlns="http://www.w3.org/2000/svg">
  <g fill="currentColor" fill-rule="nonzero">
  <path d="M274 192V68c0-2 0-3-2-4L216 8l-4-2H44c-10 0-19 9-19 19v149c0 4 3 7 6 7 4 0 7-3 7-7V25c0-3 3-6 6-6h161v36c0 11 9 19 19 19h38v244H44c-3 0-6-3-6-6V174c0-3-3-6-7-6-3 0-6 3-6 6v138c0 10 9 19 19 19h230V192zM224 62c-3 0-6-3-6-7V28l34 34h-28z"/><path d="M106 55h62c4 0 7-2 7-5 0-4-3-6-7-6h-62c-4 0-7 2-7 6 0 3 3 5 7 5zM69 55h14c3 0 6-2 6-5 0-4-3-6-6-6H69c-3 0-6 2-6 6 0 3 3 5 6 5zM106 181h124c4 0 7-2 7-5 0-4-3-6-7-6H106c-4 0-7 2-7 6 0 3 3 5 7 5zM69 106h14c3 0 6-2 6-5 0-4-3-6-6-6H69c-3 0-6 2-6 6 0 3 3 5 6 5zM106 133c-4 0-7 2-7 6 0 3 3 5 7 5h124c4 0 7-2 7-5 0-4-3-6-7-6H106zM69 144h14c3 0 6-2 6-5 0-4-3-6-6-6H69c-3 0-6 2-6 6 0 3 3 5 6 5z"/><path d="M119 181h76c3 0 6-2 6-5 0-4-3-6-6-6h-76c-3 0-6 2-6 6 0 3 3 5 6 5zM69 181h14c3 0 6-2 6-5 0-4-3-6-6-6H69c-3 0-6 2-6 6 0 3 3 5 6 5zM119 206c-3 0-6 2-6 6 0 3 3 5 6 5h50c3 0 6-2 6-5 0-4-3-6-6-6h-50zM69 217h14c3 0 6-2 6-5 0-4-3-6-6-6H69c-3 0-6 2-6 6 0 3 3 5 6 5zM69 269h14c3 0 6-2 6-5 0-4-3-6-6-6H69c-3 0-6 2-6 6 0 3 3 5 6 5z"/></g>
</svg>