<svg width="300" height="300" xmlns="http://www.w3.org/2000/svg"><path d="M150 300a148 148 0 00129-74 148 148 0 00-53-206C203 8 177 1 150 1S98 7 74 21A148 148 0 000 150c0 27 7 52 21 76a148 148 0 00129 74zm0-30c-22 0-42-6-60-17-19-10-33-24-43-43a117 117 0 010-120c10-19 24-33 43-43a117 117 0 01120 0c19 10 33 24 43 43a117 117 0 010 120c-10 19-24 33-43 43-18 11-38 17-60 17zm13-76c0-7 3-14 7-21l15-15c8-7 13-12 16-17 5-7 7-14 7-22 0-11-3-21-8-30s-13-16-22-22a57 57 0 00-59 0 61 61 0 00-30 52h29c0-8 3-15 9-21s13-9 22-9c8 0 15 3 21 9s9 13 9 21c0 5-2 10-5 15l-11 10-13 11a49 49 0 00-16 39h29zm2 43v-30h-30v30h30z" fill="#000" fill-rule="nonzero"/></svg>