<svg xmlns="http://www.w3.org/2000/svg" id="Capa_1" data-name="Capa 1" viewBox="0 0 512 512"><defs><linearGradient id="linear-gradient" x1="46.55" y1="476.39" x2="425.56" y2="28.08" gradientTransform="matrix(1 0 0 -1 0 512)" gradientUnits="userSpaceOnUse"><stop offset=".05" stop-color="#3236ee" stop-opacity=".1"/><stop offset="1" stop-color="#fd9530" stop-opacity=".1"/></linearGradient><style>.cls-14{fill:#2626bc}.cls-3{fill:#9fb0fe}.cls-4{fill:#8399fe}.cls-5{fill:#fff}.cls-9{fill:#feca91}.cls-11{fill:#6583fe}.cls-12{fill:#b7c5ff}.cls-13{fill:#fd9530}.cls-16{fill:#fdaa53}</style></defs><path d="M310.08 89.35A143.39 143.39 0 0 0 176.35 0C99.23.48 35.81 62.69 33.94 139.79a142.82 142.82 0 0 0 36.34 99c18.62 20.86 28 48.33 27 76.27q-.19 5.56 0 11.22c2.46 101.4 89.08 185.8 190.51 185.74 105.14-.06 190.34-85.31 190.34-190.46a190.48 190.48 0 0 0-111.66-173.44 109.93 109.93 0 0 1-56.39-58.77Z" style="fill:url(#linear-gradient)"/><path d="M468.5 133a79.58 79.58 0 0 0-149.33-38.3H58.49a15 15 0 0 0-15 15v254.16a15 15 0 0 0 15 15h369.83a15 15 0 0 0 15-15V191.1A79.33 79.33 0 0 0 468.5 133Z" style="opacity:.1;isolation:isolate;fill:#2626bc"/><path class="cls-3" d="M300.09 472.51H186.72l22.67-89.86h68Z"/><path class="cls-4" d="M285.31 413.94H201.5l7.89-31.29h68Z"/><path class="cls-5" d="M443.31 130.72v254.13a15 15 0 0 1-15 15H58.49a15 15 0 0 1-15-15V130.72a15 15 0 0 1 15-15h369.83a15 15 0 0 1 15 15Z"/><path d="M443.31 130.72v95.68a79.56 79.56 0 0 1-114.07-110.67h99.08a15 15 0 0 1 15 15Z" style="fill:#d2deff"/><path d="M138.88 257.79h-61.4a3 3 0 0 1-3-3v-90.91h67.39v90.91a3 3 0 0 1-2.99 3Z" style="fill:#d5d5fb"/><path class="cls-3" d="M415.13 163.88v90.9a3 3 0 0 1-3 3H170.8a3 3 0 0 1-3-3v-90.9Z"/><path class="cls-4" d="M415.13 164.26v79.23a79.65 79.65 0 0 1-105.78-75.16c0-1.36 0-2.72.11-4.07Z"/><path d="M123.41 326.66H77.48a3 3 0 0 1-3-3v-45.92a3 3 0 0 1 3-3h45.93a3 3 0 0 1 3 3v45.92a3 3 0 0 1-3 3Z" style="fill:#fedfbd"/><path class="cls-9" d="M198.5 326.66h-45.93a3 3 0 0 1-3-3v-45.92a3 3 0 0 1 3-3h45.93a3 3 0 0 1 3 3v45.92a3 3 0 0 1-3 3Z"/><path d="M306.35 326.66h-78.69a3 3 0 0 1-3-3v-45.92a3 3 0 0 1 3-3h78.69a3 3 0 0 1 3 3v45.92a3 3 0 0 1-3 3Z" style="fill:#febf7c"/><path class="cls-9" d="M412.13 326.66h-78.69a3 3 0 0 1-3-3v-45.92a3 3 0 0 1 3-3h78.69a3 3 0 0 1 3 3v45.92a3 3 0 0 1-3 3Z"/><path class="cls-11" d="M443.31 163.88v-33.16a15 15 0 0 0-15-15H58.49a15 15 0 0 0-15 15v33.16Z"/><path class="cls-12" d="M43.5 349.48v35.37a15 15 0 0 0 15 15h369.82a15 15 0 0 0 15-15v-35.37Z"/><circle class="cls-13" cx="388.87" cy="154.05" r="79.56"/><path class="cls-14" d="M76.56 139.73v.15a5 5 0 0 0 10 0v-.15a5 5 0 0 0-10 0ZM95.88 139.73v.15a5 5 0 0 0 10 0v-.15a5 5 0 0 0-10 0ZM115.19 139.73v.15a5 5 0 0 0 10 0v-.15a5 5 0 1 0-10 0Z"/><path class="cls-14" d="M388.93 69.45A84.67 84.67 0 0 0 304.35 154c0 1.63.06 3.25.15 4.86h-256v-28.14a10 10 0 0 1 10-10h233a5 5 0 0 0 0-10h-233a20 20 0 0 0-20 20v254.13a20 20 0 0 0 20 20h140.14l-15.81 62.67h-15.32a5 5 0 0 0 0 10H319.3a5 5 0 0 0 0-10H304l-15.81-62.67h140.13a20 20 0 0 0 20-20v-172.7a5.07 5.07 0 0 0-8.44-3.67 74.35 74.35 0 1 1 14.54-18.74 5 5 0 1 0 8.77 4.8 84.6 84.6 0 0 0-74.26-125.09Zm-95.26 398.06H193.14L209 404.84h68.91Zm134.65-72.67H58.49a10 10 0 0 1-10-10v-30.36h389.82v30.37a10 10 0 0 1-10 10ZM388.93 238.6a84.17 84.17 0 0 0 49.38-15.93v121.81H48.5v-175.6h257.19a84.69 84.69 0 0 0 83.24 69.72Z"/><circle cx="388.98" cy="154.16" r="58.99" style="fill:#dcfdee"/><path class="cls-16" d="M368.56 179.39a5 5 0 0 1-3.53-8.53l40.73-40.73a5 5 0 0 1 7.07 7.06l-40.73 40.74a5 5 0 0 1-3.54 1.46ZM370.31 149.72a14.31 14.31 0 1 1 14.31-14.31 14.33 14.33 0 0 1-14.31 14.31Zm0-18.62a4.31 4.31 0 1 0 4.31 4.31 4.31 4.31 0 0 0-4.31-4.31ZM407.54 187a14.31 14.31 0 1 1 14.31-14.31A14.33 14.33 0 0 1 407.54 187Zm0-18.62a4.32 4.32 0 1 0 4.32 4.31 4.31 4.31 0 0 0-4.32-4.36Z"/><ellipse class="cls-5" cx="223.15" cy="238.15" rx="5.57" ry="5.63"/><ellipse class="cls-5" cx="206.31" cy="238.15" rx="5.57" ry="5.63"/><ellipse class="cls-5" cx="189.46" cy="238.15" rx="5.57" ry="5.63"/><path class="cls-5" d="M261.56 295.67h-15a5.12 5.12 0 1 1 0-10.24h15a5.12 5.12 0 0 1 0 10.24ZM287.43 295.67h-6.58a5.12 5.12 0 0 1 0-10.24h6.58a5.12 5.12 0 0 1 0 10.24ZM287.43 316h-40.85a5.12 5.12 0 0 1 0-10.24h40.85a5.12 5.12 0 0 1 0 10.24ZM367.33 295.67h-15a5.12 5.12 0 0 1 0-10.24h15a5.12 5.12 0 0 1 0 10.24ZM393.21 295.67h-6.58a5.12 5.12 0 0 1 0-10.24h6.58a5.12 5.12 0 0 1 0 10.24ZM393.21 316h-40.85a5.12 5.12 0 0 1 0-10.24h40.85a5.12 5.12 0 0 1 0 10.24Z"/><path class="cls-3" d="M315.71 66.48a5 5 0 0 1-3.54-1.48l-11-11a5 5 0 0 1 0-7.07l11-11a5 5 0 0 1 7.08 0l11 11a5 5 0 0 1 0 7.07l-11 11a5 5 0 0 1-3.54 1.48Zm-3.92-16 3.92 3.93 3.93-3.93-3.93-3.92Z"/><path class="cls-11" d="M340.92 446.27a5 5 0 0 1-3.54-1.47l-11-11a5 5 0 0 1 0-7.07l11-11a5 5 0 0 1 7.08 0l11 11a5 5 0 0 1 0 7.07l-11 11a5 5 0 0 1-3.54 1.47Zm-3.92-16 3.92 3.93 3.92-3.93-3.92-3.92Z"/><path class="cls-12" d="M384.62 471.11a5 5 0 0 1-5-5 6 6 0 0 0-6-6 5 5 0 0 1 0-10 6 6 0 0 0 6-6 5 5 0 0 1 10 0 6 6 0 0 0 6 6 5 5 0 0 1 0 10 6 6 0 0 0-6 6 5 5 0 0 1-5 5Z"/><path class="cls-13" d="M180.07 80.49a5 5 0 0 1-5-5 6 6 0 0 0-6-6 5 5 0 1 1 0-10 6 6 0 0 0 6-6 5 5 0 0 1 10 0 6 6 0 0 0 6 6 5 5 0 0 1 0 10 6 6 0 0 0-6 6 5 5 0 0 1-5 5Z"/></svg>