<svg width="37" height="38" fill="none" xmlns="http://www.w3.org/2000/svg"><path d="M37 18.863c0 10.166-8.283 18.407-18.5 18.407S0 29.029 0 18.862C0 8.697 8.283.456 18.5.456S37 8.696 37 18.863z" fill="#13A635"/><path d="M28.427 23.918l-3.152 3.137-1.397-1.39-.716.712 2.113 2.102 3.868-3.849-.716-.712zM17.193 7.42c-3.06 0-5.55 2.477-5.55 5.523 0 3.045 2.49 5.522 5.55 5.522 3.06 0 5.55-2.477 5.55-5.522 0-3.046-2.49-5.523-5.55-5.523zm0 10.038c-2.502 0-4.538-2.026-4.538-4.515 0-2.49 2.036-4.516 4.538-4.516 2.502 0 4.538 2.026 4.538 4.516s-2.036 4.515-4.538 4.515z" fill="#fff"/><path d="M29.8 22.392a5.155 5.155 0 00-3.636-1.5c-.75-1-1.647-1.868-2.687-2.57-.082-.056-.246-.163-.246-.163l-.405-.262-.282.39a6.625 6.625 0 01-5.351 2.733 6.623 6.623 0 01-5.35-2.734l-.283-.39-.613.4A11.116 11.116 0 006 27.537v1.619h16.075c.133.17.273.337.43.493 1.006 1 2.326 1.5 3.647 1.5 1.321 0 2.642-.5 3.647-1.5a5.12 5.12 0 000-7.258zM7.012 28.15v-.612a10.11 10.11 0 014.309-8.275 7.643 7.643 0 005.872 2.765 7.643 7.643 0 005.872-2.765 10.15 10.15 0 011.926 1.764 5.127 5.127 0 00-2.486 1.364 5.117 5.117 0 00-1.04 5.759H7.012zm22.072.788a4.165 4.165 0 01-5.863 0 4.115 4.115 0 010-5.834 4.143 4.143 0 012.931-1.206c1.062 0 2.123.402 2.932 1.206a4.115 4.115 0 010 5.834z" fill="#fff"/></svg>