<svg xmlns="http://www.w3.org/2000/svg" id="Layer_1" data-name="Layer 1" viewBox="0 0 450.86 512"><defs><linearGradient id="linear-gradient" x1="74.48" y1="-1216.23" x2="390.7" y2="-900" gradientTransform="matrix(1 0 0 -1 0 -822.05)" gradientUnits="userSpaceOnUse"><stop offset="0" stop-color="#3236ee" stop-opacity=".1"/><stop offset="1" stop-color="#fd9530" stop-opacity=".1"/></linearGradient><style>.cls-9{fill:#3236ee}.cls-4{fill:#febf7c}.cls-5{fill:#9897f6}.cls-6{fill:#fff}.cls-8{fill:#fd9530}.cls-10{fill:#fdaa53}</style></defs><path d="M414.94 349.91c-22.78-16.78-56.17-16.88-80.07-1.74-25.9 16.41-55.8 39.6-83.17 10.55-20.91-22.19-16.54-57.16 4.77-77.29 15.68-14.81 34.23-26.15 52.84-37.05 57.6-33.7 109.14-104.2 72-172.43C351.88 17.88 239 19.44 202.79 92.17c-12.48 25-42.14 21.23-53.82.55-11.18-19.8-8.89-44.85-21.32-64.07C81.82-42.21-14.94 32.11 7.67 103.1c10 41.91 49.3 46.4 44.09 63.64-6.52 21.58-17.59 38.57.4 58.15 14.11 15.37 39.06 16.05 54.23 30.38 46 43.44-12.73 113.14 22.35 184.46 40.18 81.65 154.41 81.09 230.38 61 69.75-18.4 124.61-100.19 55.82-150.87Z" style="fill:url(#linear-gradient)"/><path d="M445.86 218.32v233.56a20 20 0 0 1-20 20H25a20 20 0 0 1-20-20V218.32a20 20 0 0 1 20-20h400.86a20 20 0 0 1 20 20Z" style="opacity:.1;isolation:isolate;fill:#3236ee"/><path d="M445.86 194.32v233.56a20 20 0 0 1-20 20H25a20 20 0 0 1-20-20V194.32a20 20 0 0 1 20-20h400.86a20 20 0 0 1 20 20Z" style="fill:#8399fe"/><path class="cls-4" d="M445.86 134.56v233.56a20 20 0 0 1-20 20H25a20 20 0 0 1-20-20V134.56a20 20 0 0 1 20-20h400.86a20 20 0 0 1 20 20Z"/><path class="cls-5" d="M197.73 131.22a67.1 67.1 0 1 1-132.12-16.66h130a67.29 67.29 0 0 1 2.08 16.66Z"/><path class="cls-6" d="M415.86 154.56V290a10 10 0 0 1-8.49 9.88 58.87 58.87 0 0 0-49.75 49.75 10 10 0 0 1-9.88 8.49H45a10 10 0 0 1-10-10V212.68a10 10 0 0 1 8.49-9.88 58.87 58.87 0 0 0 49.75-49.75 10 10 0 0 1 9.88-8.49h302.74a10 10 0 0 1 10 10Z"/><path d="M196.4 144.56a67.11 67.11 0 0 1-113.35 34 58.35 58.35 0 0 0 10.19-25.49 10 10 0 0 1 9.88-8.49Z" style="fill:#c1c0f9"/><circle class="cls-8" cx="353.63" cy="251.34" r="40"/><circle class="cls-4" cx="353.63" cy="251.34" r="25"/><circle class="cls-8" cx="97.23" cy="251.34" r="40"/><circle class="cls-4" cx="97.23" cy="251.34" r="25"/><path class="cls-8" d="M88.63 321.72H57.54a5 5 0 0 1 0-10h31.09a5 5 0 0 1 0 10ZM108.63 340.1H57.54a5 5 0 0 1 0-10h51.09a5 5 0 0 1 0 10ZM362.23 181h31.09a5 5 0 0 1 0 10h-31.09a5 5 0 0 1 0-10ZM342.23 162.58h51.09a5 5 0 0 1 0 10h-51.09a5 5 0 0 1 0-10Z"/><circle class="cls-6" cx="411.45" cy="353.12" r="5"/><circle class="cls-6" cx="395.18" cy="353.12" r="5"/><circle class="cls-6" cx="411.45" cy="336.86" r="5"/><circle class="cls-6" cx="40" cy="149.56" r="5"/><circle class="cls-6" cx="56.26" cy="149.56" r="5"/><circle class="cls-6" cx="40" cy="165.83" r="5"/><ellipse class="cls-8" cx="225.43" cy="251.34" rx="69.48" ry="86.85"/><path class="cls-4" d="M225.43 318.2c-12.36 0-24.26-6.37-33.51-17.93-10.3-12.88-16-30.25-16-48.93s5.67-36.05 16-48.92c9.25-11.56 21.15-17.93 33.51-17.93s24.26 6.37 33.51 17.93c10.29 12.87 16 30.25 16 48.92s-5.67 36-16 48.93c-9.25 11.56-21.15 17.93-33.51 17.93Z"/><path class="cls-6" d="M233.78 244.93h-1.94v-13H244a6.41 6.41 0 0 0 0-12.82h-12.16v-3.22a6.41 6.41 0 1 0-12.82 0v3.22h-1.94a19.34 19.34 0 0 0 0 38.68H219v13.01h-12.1a6.41 6.41 0 1 0 0 12.82H219v3.22a6.41 6.41 0 0 0 12.82 0v-3.22h1.94a19.35 19.35 0 1 0 0-38.69Zm-16.7 0a6.53 6.53 0 1 1 0-13.05H219v13.05Zm16.7 25.87h-1.94v-13.05h1.94a6.53 6.53 0 1 1 0 13.05Z"/><circle class="cls-8" cx="132.54" cy="334.91" r="5"/><circle class="cls-8" cx="151.19" cy="334.91" r="5"/><circle class="cls-8" cx="169.83" cy="334.91" r="5"/><circle class="cls-8" cx="281.03" cy="167.58" r="5"/><circle class="cls-8" cx="299.67" cy="167.58" r="5"/><circle class="cls-8" cx="318.32" cy="167.58" r="5"/><circle class="cls-5" cx="130.63" cy="107.22" r="67.1"/><path class="cls-9" d="M445.86 300.54a5 5 0 0 0-5 5v62.58a15 15 0 0 1-15 15H25a15 15 0 0 1-15-15V134.57a15 15 0 0 1 15-15h34.61a72 72 0 1 0-1.08-12.35c0 .79 0 1.57.06 2.35H25a25 25 0 0 0-25 25v293.31a25 25 0 0 0 25 25h400.86a25 25 0 0 0 25-25V305.54a5 5 0 0 0-5-5ZM130.63 45.12a62.1 62.1 0 1 1-62.1 62.1 62.17 62.17 0 0 1 62.1-62.1ZM10 407.87a24.85 24.85 0 0 0 15 5h400.86a24.85 24.85 0 0 0 15-5 15 15 0 0 1-15 15H25a15 15 0 0 1-15-15Zm15-14.75h400.86a24.87 24.87 0 0 0 15-5 15 15 0 0 1-15 14.76H25a15 15 0 0 1-15-14.76 24.87 24.87 0 0 0 15 5Zm400.86 49.76H25a15 15 0 0 1-15-15 24.85 24.85 0 0 0 15 5h400.86a24.85 24.85 0 0 0 15-5 15 15 0 0 1-15 15Z"/><path class="cls-9" d="M425.86 109.57h-198.8a5 5 0 0 0 0 10h198.8a15 15 0 0 1 15 15v141.87a5 5 0 0 0 10 0V134.57a25 25 0 0 0-25-25Z"/><path class="cls-6" d="m166.93 99.19-31.72-32.26a6.41 6.41 0 0 0-9.15 0L94.33 99.19a6.42 6.42 0 0 0 4.57 10.92h15.43V143a6.41 6.41 0 0 0 6.41 6.41h19.78a6.41 6.41 0 0 0 6.41-6.41v-32.89h15.43a6.42 6.42 0 0 0 4.57-10.92Z"/><path class="cls-10" d="M186.83 35.05a5 5 0 0 1-3.54-1.47l-5-5-5 5a5 5 0 1 1-7.07-7.07l8.5-8.5a5 5 0 0 1 7.07 0l8.5 8.5a5 5 0 0 1-3.53 8.54ZM303.17 486a5 5 0 0 1-3.53-1.47l-5-5-5 5a5 5 0 0 1-7.07-7.07l8.5-8.5a5 5 0 0 1 7.07 0l8.5 8.5a5 5 0 0 1-3.54 8.54Z"/><path d="M390.68 91.94a5 5 0 0 1-3.53-1.46l-5-5-5 5a5 5 0 0 1-7.07-7.07l8.5-8.5a5 5 0 0 1 7.07 0l8.5 8.5a5 5 0 0 1-3.54 8.53Z" style="fill:#6583fe"/></svg>