<svg width="19" height="20" fill="none" xmlns="http://www.w3.org/2000/svg"><g clip-path="url(#clip0)" fill="#8898AA"><path d="M16.736 1.518h-5.662A1.673 1.673 0 009.5.405c-.726 0-1.345.465-1.575 1.113H2.264v17.887h14.472V1.518zM6.716 2.632h2.227v-.557a.557.557 0 011.114 0v.557h2.226v1.113H6.717V2.632zm8.907 15.66H3.377V2.632h2.227v2.226h7.792V2.632h2.227v15.66z"/><path d="M12.379 6.372L9.787 8.964l-4.375 4.375L4.23 16.88l3.542-1.18 6.967-6.968-2.361-2.361zm-5.207 8.355l-1.18.394.393-1.18 4.189-4.19.787.787-4.189 4.19zm4.346-5.606l-.157-.157 1.018-1.018.787.787-1.018 1.018-.63-.63z"/></g><defs><clipPath id="clip0"><path fill="#fff" transform="translate(0 .405)" d="M0 0h19v19H0z"/></clipPath></defs></svg>