<svg width="20" height="17" fill="none" xmlns="http://www.w3.org/2000/svg"><path d="M17.66 2.792h-4.799V.605H6.335v2.187h-4.8C.69 2.792 0 3.477 0 4.32v10.677c0 .843.689 1.528 1.536 1.528H17.66c.846 0 1.535-.685 1.535-1.528V4.32c0-.843-.689-1.528-1.535-1.528zM7.104 1.37h4.99v1.423h-4.99V1.37zm11.325 13.628a.767.767 0 01-.767.764H1.536a.767.767 0 01-.768-.764V4.32c0-.421.344-.764.768-.764H17.66c.423 0 .767.343.767.764v10.677z" fill="#F4951B"/><path d="M9.598 5.09c-2.532 0-4.591 2.05-4.591 4.569 0 2.518 2.06 4.568 4.591 4.568s4.591-2.05 4.591-4.568c0-2.52-2.06-4.568-4.591-4.568zm0 8.373c-2.108 0-3.823-1.707-3.823-3.804 0-2.098 1.715-3.804 3.823-3.804 2.108 0 3.823 1.706 3.823 3.804 0 2.097-1.715 3.804-3.823 3.804z" fill="#F4951B"/><path d="M9.982 9.277V6.889h-.768v2.388h-2.4v.764h2.4v2.387h.768v-2.387h2.4v-.764h-2.4z" fill="#F4951B"/></svg>