<svg xmlns="http://www.w3.org/2000/svg" id="Layer_1" data-name="Layer 1" viewBox="0 0 475.81 512"><defs><linearGradient id="linear-gradient" x1="-21.63" y1="-47.3" x2="410.96" y2="385.28" gradientTransform="matrix(1 0 0 -1 0 354.77)" gradientUnits="userSpaceOnUse"><stop offset="0" stop-color="#3236ee" stop-opacity=".1"/><stop offset="1" stop-color="#fd9530" stop-opacity=".1"/></linearGradient><style>.cls-3{fill:#3236ee}.cls-6{fill:#6582fd}.cls-8{fill:#fd9530}.cls-9{fill:#fff}.cls-10{fill:#8298fd}.cls-11{fill:#ff9d33}</style></defs><path d="M475.77 66.07c1.78-50.75-55.92-98.31-86.36-37.45C314.71 178 82.84-56.93 7.42 84.15c-32.78 61.32 52.07 108.14 78.93 158.15 41.49 77.25-45.61 154.61-28.53 227.85 12.19 52.24 83.9 50.49 122.94 22.52 45-32.27 53.91-85.2 65.08-135.17C274 231.49 470.7 210.63 475.77 66.07Z" style="fill:url(#linear-gradient)"/><g style="opacity:.1"><path class="cls-3" d="M438.23 209.34a10 10 0 0 0 14.14 0l5.84-5.84a10 10 0 0 0 0-14.14l-79.65-79.66a10 10 0 0 0-14.14 0l-5.85 5.85a10 10 0 0 0-2.7 9.14h-62v-3.58a10 10 0 0 0-10-10H272a10 10 0 0 0-10 10v3.58h-43.76a5 5 0 0 0 0 10H262v16.19H14.67a5 5 0 1 0 0 10h219.47a139.7 139.7 0 0 0-50.31 25.54h-69.24a5 5 0 0 0 0 10h58c-.22.22-.45.43-.67.66A140.45 140.45 0 0 0 160.44 210H39.93a5 5 0 0 0 0 10h113.38a140.83 140.83 0 0 0-.58 152.15h-21.15a5 5 0 0 0 0 10h28.16a141.73 141.73 0 0 0 41 36.05H77.19a5 5 0 0 0 0 10h144.6a141.17 141.17 0 0 0 108.9-4.08 51 51 0 0 0 93.85-27.7c.13-18.23-9.69-34.32-24.25-43.53a140.58 140.58 0 0 0 11.44-47h35.08a10 10 0 0 0 10-10V284a10 10 0 0 0-10-10h-36.58a140 140 0 0 0-25.63-61l28.67-28.67Zm-83.36-26a139.93 139.93 0 0 0-61-25.63v-23h69.68l20 20Z"/><path class="cls-3" d="M92.84 382.17a5 5 0 0 0 0-10H72.55a5 5 0 0 0 0 10ZM177.57 134.69h16a5 5 0 0 0 0-10h-16a5 5 0 0 0 0 10Z"/></g><path d="m349.16 165 34.32-34.31 29.72 29.72-34.32 34.32Z" style="fill:#d1ddff"/><path d="m366.51 147.66 17-17 29.72 29.72-17 17Z" style="fill:#b6c4ff"/><path class="cls-6" d="m438.23 185.34-79.66-79.65a10 10 0 0 1 0-14.14l5.85-5.85a10 10 0 0 1 14.14 0l79.65 79.66a10 10 0 0 1 0 14.14l-5.84 5.84a10 10 0 0 1-14.14 0ZM400.27 281.93V250h46.54a10 10 0 0 1 10 10v11.9a10 10 0 0 1-10 10ZM262 143.64h31.9V97.11a10 10 0 0 0-10-10H272a10 10 0 0 0-10 10Z"/><circle cx="271.37" cy="272.55" r="140.67" style="fill:#feb567"/><circle class="cls-8" cx="271.37" cy="272.55" r="115.51"/><circle class="cls-9" cx="271.37" cy="272.55" r="105.18"/><circle class="cls-10" cx="331.05" cy="212.87" r="10"/><circle class="cls-10" cx="211.69" cy="332.23" r="10"/><circle class="cls-10" cx="293.21" cy="191.02" r="10"/><circle class="cls-10" cx="249.52" cy="354.08" r="10"/><circle class="cls-10" cx="249.52" cy="191.02" r="10"/><circle class="cls-10" cx="293.21" cy="354.08" r="10"/><circle class="cls-10" cx="211.69" cy="212.87" r="10"/><circle class="cls-10" cx="331.05" cy="332.23" r="10"/><circle class="cls-10" cx="189.84" cy="250.71" r="10"/><circle class="cls-10" cx="352.9" cy="294.4" r="10"/><circle class="cls-10" cx="189.84" cy="294.4" r="10"/><circle class="cls-10" cx="352.9" cy="250.71" r="10"/><path class="cls-8" d="m285.18 265.79.11-.09 48.37-48.37a5 5 0 0 0-7.07-7.07l-48.37 48.37s-.06.08-.09.11a15.39 15.39 0 1 0 7.05 7.05Zm-17.62 10.57a5.39 5.39 0 1 1 7.62 0 5.4 5.4 0 0 1-7.62 0Z"/><path class="cls-10" d="M373.58 423.4a51.31 51.31 0 0 0 51-50.95c.2-28.44-23.8-51.7-52.23-51.7H327.2a5.31 5.31 0 0 0-5.31 5.31v45.11c0 28.43 23.26 52.43 51.69 52.23Z"/><path class="cls-3" d="M446.82 245h-32.4a144.59 144.59 0 0 0-23.29-55.44l22.13-22.14 21.43 21.43a15 15 0 0 0 21.21 0l5.85-5.85a15 15 0 0 0 0-21.21l-45-45a5 5 0 0 0-7.07 7.07l45 45a5 5 0 0 1 0 7.07l-5.85 5.85a5 5 0 0 1-7.07 0l-79.65-79.65a5 5 0 0 1 0-7.07l5.89-5.82a5 5 0 0 1 7.07 0L388.78 103a5 5 0 0 0 7.08-7.07L382.1 82.17a15 15 0 0 0-21.21 0L355 88a14.9 14.9 0 0 0-4.39 10.6 14.21 14.21 0 0 0 .16 2.07H298.9v-3.56a15 15 0 0 0-15-15H272a15 15 0 0 0-15 15v3.58h-38.76a5 5 0 0 0 0 10H257v16.19H14.67a5 5 0 1 0 0 10h203.46A144.7 144.7 0 0 0 176 162.42h-61.41a5 5 0 0 0 0 10h51A146.92 146.92 0 0 0 154.14 186H39.93a5 5 0 0 0 0 10h107.43a146 146 0 0 0-.56 152.15h-15.22a5 5 0 0 0 0 10h21.91a147.2 147.2 0 0 0 37.7 36.05h-114a5 5 0 0 0 0 10h131.68a144.41 144.41 0 0 0 62.2 14 147.23 147.23 0 0 0 32.84-3.72 5 5 0 0 0-2.23-9.75 135.75 135.75 0 0 1-63.37-.58h33.06a5 5 0 0 0 0-10h-60.16a136.67 136.67 0 0 1-45.1-36.05h57.45a5 5 0 0 0 0-10h-64.88a135.7 135.7 0 1 1 239.12-26.28 57.36 57.36 0 0 0-25.49-6.07H327.2a10.33 10.33 0 0 0-10.31 10.31v45.11A58 58 0 0 0 334 412a55.4 55.4 0 0 0 39.23 16.39h.39a56.54 56.54 0 0 0 55.92-55.92 55.35 55.35 0 0 0-16.38-39.62 58.27 58.27 0 0 0-6.7-5.77 145.29 145.29 0 0 0 9.88-40.16h30.47a15 15 0 0 0 15-15V260a15 15 0 0 0-15-15ZM356.5 110.69l20 20-22.12 22.13a143.89 143.89 0 0 0-55.44-23.31v-18.82ZM267 97.11a5 5 0 0 1 5-5h11.9a5 5 0 0 1 5 5v3.58H267Zm0 13.58h21.9v17.23a147.84 147.84 0 0 0-17.53-1H267Zm95.44 48.15 21.11-21.12 22.65 22.66-21.11 21.11a148.76 148.76 0 0 0-10.7-12 150.29 150.29 0 0 0-11.95-10.7Zm57.11 213.57a46.49 46.49 0 0 1-46 46h-.32a45.48 45.48 0 0 1-32.18-13.48 48 48 0 0 1-14.16-33.76v-45.11a.31.31 0 0 1 .31-.31h45.11a48 48 0 0 1 33.76 14.16 45.47 45.47 0 0 1 13.47 32.5Zm32.28-100.48a5 5 0 0 1-5 5H417a147.47 147.47 0 0 0-1-21.9h30.84a5 5 0 0 1 5 5Z"/><path class="cls-3" d="M92.84 358.17a5 5 0 0 0 0-10H72.55a5 5 0 0 0 0 10ZM177.57 110.69h16a5 5 0 0 0 0-10h-16a5 5 0 0 0 0 10Z"/><path class="cls-11" d="M367.2 356.7h-10.44a5 5 0 0 1 0-10h10.44a5 5 0 0 1 0 10Z"/><path class="cls-9" d="M389.67 377.08h-32.91a5 5 0 0 1 0-10h32.91a5 5 0 0 1 0 10ZM389.67 397.46h-32.91a5 5 0 0 1 0-10h32.91a5 5 0 0 1 0 10Z"/><path class="cls-11" d="M307.36 73.67a5 5 0 0 1-5-5 6.34 6.34 0 0 0-6.36-6.34 5 5 0 0 1 0-10 6.34 6.34 0 0 0 6.36-6.33 5 5 0 0 1 10 0 6.34 6.34 0 0 0 6.33 6.33 5 5 0 0 1 0 10 6.34 6.34 0 0 0-6.33 6.34 5 5 0 0 1-5 5ZM307.36 466.7a5 5 0 0 1-5-5 6.34 6.34 0 0 0-6.34-6.33 5 5 0 0 1 0-10 6.34 6.34 0 0 0 6.34-6.34 5 5 0 0 1 10 0 6.34 6.34 0 0 0 6.33 6.34 5 5 0 0 1 0 10 6.34 6.34 0 0 0-6.33 6.33 5 5 0 0 1-5 5Z"/><path class="cls-8" d="M110.88 107.44a5 5 0 0 1-5-5 6.34 6.34 0 0 0-6.33-6.33 5 5 0 0 1 0-10 6.34 6.34 0 0 0 6.33-6.34 5 5 0 1 1 10 0 6.34 6.34 0 0 0 6.33 6.34 5 5 0 0 1 0 10 6.34 6.34 0 0 0-6.33 6.33 5 5 0 0 1-5 5ZM67.55 261.73a5 5 0 0 1-3.55-1.47l-5.46-5.46-5.47 5.46a5 5 0 1 1-7.07-7.07l9-9a5 5 0 0 1 7.07 0l9 9a5 5 0 0 1-3.53 8.54Z"/><path class="cls-6" d="M262.07 475a5 5 0 0 1-3.54-1.46l-5.46-5.54-5.46 5.46a5 5 0 1 1-7.08-7.07l9-9a5 5 0 0 1 7.08 0l9 9a5 5 0 0 1-3.54 8.53Z"/></svg>