<svg width="37" height="37" fill="none" xmlns="http://www.w3.org/2000/svg"><path d="M37 18.407c0 10.167-8.283 18.408-18.5 18.408S0 28.574 0 18.408C0 8.24 8.283 0 18.5 0S37 8.241 37 18.407z" fill="#CD2114"/><path d="M28.527 23.915l-.715-.712-1.66 1.65-1.659-1.65-.716.712 1.66 1.65-1.66 1.652.716.712 1.66-1.651 1.659 1.651.715-.712-1.659-1.651 1.66-1.651zM17.193 6.965c-3.06 0-5.55 2.477-5.55 5.523 0 3.045 2.49 5.522 5.55 5.522 3.06 0 5.55-2.477 5.55-5.522 0-3.046-2.49-5.523-5.55-5.523zm0 10.038c-2.502 0-4.538-2.026-4.538-4.515 0-2.49 2.036-4.516 4.538-4.516 2.502 0 4.538 2.026 4.538 4.516s-2.036 4.515-4.538 4.515z" fill="#fff"/><path d="M29.8 21.936a5.154 5.154 0 00-3.636-1.5 11.168 11.168 0 00-2.934-2.732l-.404-.262-.282.39a6.624 6.624 0 01-5.351 2.733 6.626 6.626 0 01-5.351-2.734l-.283-.39-.612.399A11.116 11.116 0 006 27.083v1.62h16.075c.132.17.273.336.43.492 1.005 1 2.326 1.5 3.647 1.5 1.321 0 2.642-.5 3.647-1.5a5.12 5.12 0 000-7.259zM7.011 27.695v-.612a10.11 10.11 0 014.308-8.275 7.644 7.644 0 005.873 2.765 7.643 7.643 0 005.872-2.765 10.16 10.16 0 011.926 1.764 5.117 5.117 0 00-3.526 7.123H7.012zm22.072.788a4.165 4.165 0 01-5.863 0 4.116 4.116 0 010-5.834 4.143 4.143 0 012.931-1.207c1.062 0 2.123.402 2.932 1.207a4.115 4.115 0 010 5.834z" fill="#fff"/></svg>