<svg width="19" height="20" fill="none" xmlns="http://www.w3.org/2000/svg"><g clip-path="url(#clip0)"><g clip-path="url(#clip1)"><path d="M18.443 1.815h-8.386V.962a.557.557 0 00-1.114 0v.853H.557A.557.557 0 000 2.37v13.625c0 .308.25.557.557.557h5.478L4.871 18.57a.557.557 0 10.964.557l1.486-2.574h1.622v2.295a.557.557 0 001.114 0v-2.295h1.622l1.486 2.574a.556.556 0 10.964-.557l-1.164-2.017h5.478c.308 0 .557-.25.557-.557V2.371a.557.557 0 00-.557-.556zm-.556 1.113v10.273H1.114V2.928h16.773zm0 12.512H1.114v-1.126h16.773v1.126z" fill="#8898AA"/></g></g><defs><clipPath id="clip0"><path fill="#fff" transform="translate(0 .81)" d="M0 0h19v19H0z"/></clipPath><clipPath id="clip1"><path fill="#fff" transform="translate(0 .405)" d="M0 0h19v19H0z"/></clipPath></defs></svg>