<svg width="32" height="33" fill="none" xmlns="http://www.w3.org/2000/svg"><path d="M10.182 12.602a2.176 2.176 0 002.182-2.171c0-1.199-.977-2.171-2.182-2.171A2.176 2.176 0 008 10.43c0 1.2.977 2.172 2.182 2.172zM10.182 18.39a2.176 2.176 0 002.182-2.17c0-1.199-.977-2.17-2.182-2.17A2.176 2.176 0 008 16.22c0 1.199.977 2.17 2.182 2.17zM10.182 24.18a2.176 2.176 0 002.182-2.171c0-1.199-.977-2.17-2.182-2.17A2.176 2.176 0 008 22.008c0 1.199.977 2.171 2.182 2.171zM13.818 9.707H24v1.447H13.818zM13.818 15.496H24v1.447H13.818zM13.818 21.285H24v1.447H13.818z" fill="#F5365C"/></svg>