<svg width="19" height="20" fill="none" xmlns="http://www.w3.org/2000/svg"><path d="M7.125 9.51A3.963 3.963 0 013.167 5.55a3.963 3.963 0 013.958-3.958 3.963 3.963 0 013.958 3.958A3.963 3.963 0 017.125 9.51zm0-6.73a2.774 2.774 0 00-2.771 2.771 2.774 2.774 0 002.77 2.771 2.774 2.774 0 002.772-2.77A2.774 2.774 0 007.125 2.78zM13.656 18.218H.594A.594.594 0 010 17.623v-2.771a3.765 3.765 0 013.76-3.76h6.73a3.765 3.765 0 013.76 3.76v2.77a.594.594 0 01-.594.595zM1.187 17.03h11.875v-2.177a2.576 2.576 0 00-2.573-2.573H3.76a2.576 2.576 0 00-2.573 2.573v2.177zM18.406 9.707h-6.73a.594.594 0 010-1.187h6.73a.594.594 0 010 1.187z" fill="#8898AA"/><path d="M15.24 12.874a.594.594 0 01-.42-1.014l2.747-2.747-2.748-2.747a.594.594 0 11.84-.84l3.167 3.167a.594.594 0 010 .84l-3.167 3.166a.59.59 0 01-.42.175z" fill="#8898AA"/></svg>