<svg width="16" height="16" fill="none" xmlns="http://www.w3.org/2000/svg"><g clip-path="url(#clip0)" fill="#000" fill-opacity=".5"><path d="M10 8.668a.666.666 0 00-.667.666v2.667a.667.667 0 01-.666.667h-2v-10c0-.57-.363-1.078-.908-1.267l-.198-.066h3.106c.368 0 .666.299.666.666v2a.666.666 0 101.333 0v-2c0-1.102-.897-2-2-2H1.5c-.025 0-.047.012-.071.015C1.397.013 1.366 0 1.333 0 .598.001 0 .6 0 1.335v12c0 .569.363 1.077.908 1.267l4.012 1.337c.136.042.271.062.413.062.736 0 1.334-.598 1.334-1.333V14h2c1.102 0 2-.897 2-2V9.334A.666.666 0 0010 8.668z"/><path d="M15.805 6.195L13.138 3.53A.667.667 0 0012 4v2H9.333a.667.667 0 000 1.333H12v2a.668.668 0 001.138.472l2.667-2.667a.666.666 0 000-.943z"/></g><defs><clipPath id="clip0"><path fill="#fff" d="M0 0h16v16H0z"/></clipPath></defs></svg>