<svg width="16" height="17" fill="none" xmlns="http://www.w3.org/2000/svg"><path d="M15.194 1.767A2.74 2.74 0 0013.25.965a2.74 2.74 0 00-1.946.802L.067 12.947 0 16.884l3.958-.067 11.236-11.18c.52-.517.806-1.204.806-1.936 0-.73-.286-1.418-.806-1.935zM3.69 16.186l-3.038.05.052-3.022.927-.923 2.986 2.972-.927.923zm1.38-1.373l-2.987-2.972 8.323-8.28 2.986 2.971-8.322 8.281zm9.673-9.625l-.899.894-2.986-2.971.899-.894a2.103 2.103 0 011.493-.615 2.103 2.103 0 012.111 2.1c0 .562-.22 1.09-.618 1.486z" fill="#2F28F2" fill-opacity=".5"/><path d="M8.23 8.246l-.452.45.452.45.452-.45-.452-.45zM9.406 7.075l-.452.45.452.45.453-.45-.453-.45zM7.053 9.416l-.452.45.452.45.453-.45-.453-.45zM5.877 10.586l-.442.44.452.45.442-.44-.452-.45zM15.68 16.242H7.646v.637h8.032v-.637z" fill="#2F28F2" fill-opacity=".5"/></svg>