<svg width="37" height="38" fill="none" xmlns="http://www.w3.org/2000/svg"><path d="M37 18.863c0 10.166-8.283 18.407-18.5 18.407S0 29.029 0 18.862C0 8.697 8.283.456 18.5.456S37 8.696 37 18.863z" fill="#EFC100"/><path d="M23.677 12.064V7.42h-9.82v4.644C11.53 13.634 10 16.286 10 19.286c0 3.001 1.531 5.652 3.856 7.222v4.643h9.821v-4.643c2.325-1.57 3.856-4.221 3.856-7.222 0-3-1.53-5.651-3.856-7.222zM14.81 8.37h7.913v3.144a8.736 8.736 0 00-3.956-.95 8.736 8.736 0 00-3.957.95V8.369zm7.913 21.832H14.81V27.06c1.19.602 2.532.95 3.957.95a8.736 8.736 0 003.956-.95v3.142zm-3.956-3.141c-4.308 0-7.813-3.487-7.813-7.774 0-4.286 3.505-7.773 7.813-7.773S26.58 15 26.58 19.286c0 4.287-3.505 7.774-7.813 7.774z" fill="#fff"/><path d="M19.244 19.09V12.97h-.954v6.512l2.587 2.574.674-.671-2.307-2.296z" fill="#fff"/></svg>