<svg width="20" height="20" fill="none" xmlns="http://www.w3.org/2000/svg">
  <g clip-path="url(#clip0)">
    <path d="M17.07 2.928C13.164-.977 6.832-.976 2.927 2.93-.976 6.836-.975 13.167 2.93 17.072A10 10 0 0017.07 2.928zM15.144 13.93h-.001v-.002l-.507.503a2.667 2.667 0 01-2.516.72 8.861 8.861 0 01-2.574-1.153 11.892 11.892 0 01-2.03-1.637A11.984 11.984 0 016 10.52a9.333 9.333 0 01-1.14-2.307 2.667 2.667 0 01.666-2.723l.594-.593a.423.423 0 01.598-.002l.002.002L8.593 6.77a.423.423 0 01.001.599h-.001l-1.1 1.1A.897.897 0 007.4 9.639c.397.546.838 1.06 1.316 1.536a12.786 12.786 0 001.734 1.457.903.903 0 001.153-.1l1.063-1.08a.423.423 0 01.6 0l1.877 1.88a.423.423 0 01.001.599z" fill="#2F28F2" />
  </g>
  <defs>
    <clipPath id="clip0">
      <path fill="#fff" d="M0 0h20v20H0z" />
    </clipPath>
  </defs>
</svg>