<svg xmlns="http://www.w3.org/2000/svg" id="Layer_1" data-name="Layer 1" viewBox="0 0 512 463.58"><defs><linearGradient id="linear-gradient" x1="470.91" y1="-173.47" x2="8.9" y2="352.01" gradientTransform="matrix(1 0 0 -1 0 303.45)" gradientUnits="userSpaceOnUse"><stop offset="0" stop-color="#3236ee" stop-opacity=".1"/><stop offset="1" stop-color="#fd9530" stop-opacity=".1"/></linearGradient><style>.cls-4{fill:#3236ee}.cls-6{fill:#ffd9d9}.cls-7{fill:#8383ff}.cls-8{fill:#6c6cff}.cls-9{fill:#282bbf}.cls-10{fill:#9897f6}.cls-12{fill:#4d4dff}</style></defs><path d="M9.25 345.55C-5.15 323.21-9.4 195.44 47.15 183.2 201 149.88 206.44 17.58 264.19 25.11S304.36 130.56 342 113s35.16-129 77.84-88.35-2.51 65.75 37.66 108.43S568.8 290.24 431 412.12c-142.85 126.37-136-85-249.65-52.4-74.99 21.53-143.81 29.7-172.1-14.17Z" style="fill:url(#linear-gradient)"/><path d="M467.42 242 441 226.19A189.63 189.63 0 0 0 272.66 57.8l-15.82-26.37a5 5 0 0 0-8.58 0L232.45 57.8A189.64 189.64 0 0 0 64.06 226.19L37.69 242a5 5 0 0 0 0 8.58l26.37 15.82a189.63 189.63 0 0 0 168.39 168.38l15.81 26.38a5 5 0 0 0 8.58 0l15.82-26.38A189.62 189.62 0 0 0 441 266.4l26.38-15.82a5 5 0 0 0 0-8.58Z" style="opacity:.1;isolation:isolate;fill:#3236ee"/><path d="M467.42 218 441 202.19A189.63 189.63 0 0 0 272.66 33.8L256.84 7.43a5 5 0 0 0-8.58 0L232.45 33.8A189.64 189.64 0 0 0 64.06 202.19L37.69 218a5 5 0 0 0 0 8.58l26.37 15.82a189.63 189.63 0 0 0 168.39 168.38l15.81 26.38a5 5 0 0 0 8.58 0l15.82-26.38A189.62 189.62 0 0 0 441 242.4l26.38-15.82a5 5 0 0 0 0-8.58Z" style="fill:#fd9530"/><path class="cls-4" d="M106.21 347.74a5 5 0 0 1-3.86-1.82 193.46 193.46 0 0 1-43-100.51l-24.23-14.54a10 10 0 0 1 0-17.15l24.26-14.55A194.63 194.63 0 0 1 229.43 29.11L244 4.86a10 10 0 0 1 17.16 0l14.54 24.26a193.46 193.46 0 0 1 100.51 43 5 5 0 0 1-6.36 7.72 183.36 183.36 0 0 0-97.69-41 5 5 0 0 1-3.76-2.4L252.55 10l-15.82 26.38a5 5 0 0 1-3.76 2.4A184.59 184.59 0 0 0 69 202.71a5 5 0 0 1-2.41 3.76l-26.33 15.82 26.37 15.82a5 5 0 0 1 2.4 3.76 183.45 183.45 0 0 0 41 97.69 5 5 0 0 1-3.86 8.18ZM252.55 444.59a9.92 9.92 0 0 1-8.57-4.86l-14.55-24.26a193.43 193.43 0 0 1-100.77-43.19 5 5 0 0 1 6.38-7.71A183.38 183.38 0 0 0 233 405.81a5 5 0 0 1 3.76 2.4l15.82 26.38 15.82-26.38a5 5 0 0 1 3.76-2.4 184.63 184.63 0 0 0 163.91-163.94 5 5 0 0 1 2.4-3.76l26.37-15.82-26.37-15.81a5 5 0 0 1-2.4-3.77 183.38 183.38 0 0 0-41.24-97.93 5 5 0 0 1 7.71-6.38 193.43 193.43 0 0 1 43.19 100.77L470 213.72a10 10 0 0 1 0 17.15l-24.26 14.54a194.63 194.63 0 0 1-170.07 170.06l-14.54 24.26a9.93 9.93 0 0 1-8.58 4.85Z"/><circle cx="252.55" cy="222.29" r="161.6" style="fill:#fee"/><path class="cls-6" d="M252.55 92.16a130.13 130.13 0 1 0 130.13 130.13A130.13 130.13 0 0 0 252.55 92.16Zm0 248.63a118.5 118.5 0 1 1 118.5-118.5 118.49 118.49 0 0 1-118.5 118.5Z"/><path class="cls-6" d="M252.55 92.16a130.13 130.13 0 1 0 130.13 130.13A130.13 130.13 0 0 0 252.55 92.16Zm0 248.63a118.5 118.5 0 1 1 118.5-118.5 118.49 118.49 0 0 1-118.5 118.5Z"/><path class="cls-7" d="m313.79 163.82-47.93 71.78-71.78 47.93a2 2 0 0 1-2.77-2.77L239.24 209 311 161.05a2 2 0 0 1 2.77 2.77Z"/><path class="cls-8" d="m313.79 163.82-47.93 71.78-71.78 47.93a2 2 0 0 1-2.53-.24l122-122a2 2 0 0 1 .24 2.53Z"/><path class="cls-7" d="m311 283.53-71.76-47.93-47.93-71.78a2 2 0 0 1 2.77-2.77L265.86 209l47.93 71.78a2 2 0 0 1-2.77 2.77Z"/><path class="cls-8" d="m311 283.53-71.76-47.93-47.93-71.78a2 2 0 0 1 .24-2.53l122 122a2 2 0 0 1-2.55.24Z"/><path class="cls-9" d="m252.55 247.14-87.14-22.92a2 2 0 0 1 0-3.86l87.14-22.92 87.14 22.92a2 2 0 0 1 0 3.86Z"/><path class="cls-10" d="M252.55 247.14v-24.85h88.63a1.94 1.94 0 0 1-1.49 1.93ZM252.55 222.29h-88.63a1.94 1.94 0 0 1 1.49-1.93l87.14-22.92Z"/><path class="cls-10" d="M252.55 247.14v-24.85h88.63a1.94 1.94 0 0 1-1.49 1.93ZM252.55 222.29h-88.63a1.94 1.94 0 0 1 1.49-1.93l87.14-22.92Z"/><path class="cls-9" d="m227.7 222.29 22.92-87.14a2 2 0 0 1 3.86 0l22.92 87.14-22.92 87.14a2 2 0 0 1-3.86 0Z"/><path class="cls-10" d="M227.7 222.29h24.85v88.63a1.94 1.94 0 0 1-1.93-1.49ZM252.55 222.29v-88.63a1.94 1.94 0 0 1 1.93 1.49l22.92 87.14Z"/><path class="cls-10" d="M227.7 222.29h24.85v88.63a1.94 1.94 0 0 1-1.93-1.49ZM252.55 222.29v-88.63a1.94 1.94 0 0 1 1.93 1.49l22.92 87.14Z"/><path class="cls-8" d="M261.09 82.93a5 5 0 0 0-5 5v7.69L248 84.92a5 5 0 0 0-9 3v22.61a5 5 0 0 0 10 0v-7.69l8.08 10.7a5 5 0 0 0 4 2 5.19 5.19 0 0 0 1.59-.26 5 5 0 0 0 3.41-4.74V87.93a5 5 0 0 0-5-5ZM252.35 333.39h7.47a5 5 0 1 0 0-10h-7.47a12.07 12.07 0 1 0 0 24.13h.4a2.07 2.07 0 1 1 0 4.13h-7.47a5 5 0 1 0 0 10h7.47a12.07 12.07 0 1 0 0-24.13h-.4a2.07 2.07 0 1 1 0-4.13ZM390.07 230.67h-8.76v-3.38h3.32a5 5 0 0 0 0-10h-3.32v-3.38h8.76a5 5 0 0 0 0-10h-13.76a5 5 0 0 0-5 5v26.76a5 5 0 0 0 5 5h13.76a5 5 0 0 0 0-10ZM152 205.43a5 5 0 0 0-6.3 3.21l-4.16 12.8-7-13.55a5 5 0 1 0-8.89 4.58l2.77 5.38-1.63 4.28-7.32-14.24a5 5 0 1 0-8.89 4.58l12.46 24.22a5 5 0 0 0 4.44 2.71h.28a5 5 0 0 0 4.4-3.22l2.41-6.37 3.54 6.88a5 5 0 0 0 4.45 2.71h.4a5 5 0 0 0 4.35-3.44l7.87-24.23a5 5 0 0 0-3.21-6.29Z"/><path d="M104.74 403.18H103l5.26-5.26a5 5 0 1 0-7.07-7.07L96 396.11v-1.72a5 5 0 0 0-10 0v13.79a5 5 0 0 0 5 5h13.79a5 5 0 0 0 0-10Z" style="fill:#ff8b00"/><path class="cls-9" d="M73.2 350H59.4a5 5 0 1 0 0 10h1.73l-5.26 5.26a5 5 0 0 0 7.07 7.07L68.2 367v1.72a5 5 0 0 0 10 0V355a5 5 0 0 0-5-5ZM434.3 62.59h-1.73l5.26-5.26a5 5 0 0 0-7.07-7.07l-5.26 5.26V53.8a5 5 0 0 0-10 0v13.79a5 5 0 0 0 5 5h13.8a5 5 0 0 0 0-10Z"/><path class="cls-12" d="M476.74 272H463a5 5 0 0 0 0 10h1.72l-5.26 5.26a5 5 0 0 0 7.07 7.07l5.26-5.26v1.72a5 5 0 0 0 10 0V277a5 5 0 0 0-5.05-5ZM388.64 18.57a5 5 0 0 0-7.07 0l-5.26 5.25V22.1a5 5 0 0 0-10 0v13.8a5 5 0 0 0 5 5h13.79a5 5 0 0 0 0-10h-1.72l5.26-5.26a5 5 0 0 0 0-7.07Z"/></svg>