<svg width="24" height="23" fill="none" xmlns="http://www.w3.org/2000/svg"><path d="M12 0C8.737 0 6.083 2.544 6.083 5.67c0 3.127 2.654 5.671 5.917 5.671s5.918-2.543 5.918-5.67S15.263 0 12 0zm0 10.421c-2.733 0-4.957-2.13-4.957-4.75S9.267.92 12 .92c2.733 0 4.957 2.131 4.957 4.75 0 2.62-2.224 4.751-4.957 4.751z" fill="#2F28F2"/><path d="M18.74 11.308l-.268-.17-.384-.238-.267.356C16.473 13.049 14.297 14.12 12 14.12c-2.297 0-4.474-1.07-5.821-2.864l-.268-.357-.607.381C1.983 13.424 0 16.992 0 20.825v1.617h24v-1.617c0-3.813-1.967-7.37-5.26-9.517zm4.3 10.214H.96v-.698c0-3.464 1.761-6.693 4.722-8.677C7.222 13.967 9.55 15.04 12 15.04c2.45 0 4.778-1.074 6.318-2.893 2.96 1.982 4.722 5.215 4.722 8.677v.698z" fill="#2F28F2"/></svg>