<svg width="16" height="17" fill="none" xmlns="http://www.w3.org/2000/svg"><g clip-path="url(#clip0)" fill="#000" fill-opacity=".5"><path d="M8 .92c-2.326 0-4.219 1.883-4.219 4.198 0 2.314 1.893 4.197 4.219 4.197 2.326 0 4.219-1.883 4.219-4.197C12.219 2.803 10.326.92 8 .92zM13.249 12.057a6.03 6.03 0 00-4.312-1.809H7.063a6.03 6.03 0 00-4.312 1.81A6.102 6.102 0 00.97 16.373c0 .257.21.466.469.466h13.124a.468.468 0 00.47-.466 6.102 6.102 0 00-1.783-4.316z"/></g><defs><clipPath id="clip0"><path fill="#fff" transform="translate(0 .92)" d="M0 0h16v15.92H0z"/></clipPath></defs></svg>