<svg width="19" height="20" fill="none" xmlns="http://www.w3.org/2000/svg"><g clip-path="url(#clip0)" fill="#8898AA"><path d="M8.387 4.858c.307 0 .556-.25.556-.556a.557.557 0 11.745.524c-.445.16-.745.584-.745 1.057v.088a.557.557 0 001.114 0v-.088a.01.01 0 01.006-.01 1.674 1.674 0 001.107-1.571c0-.921-.75-1.67-1.67-1.67-.92 0-1.67.749-1.67 1.67 0 .307.25.556.557.556zM9.5 8.198a.557.557 0 100-1.113.557.557 0 000 1.113z"/><path d="M18.443 5.971h-1.707v-1.67a.557.557 0 00-.556-.556h-1.957A5.018 5.018 0 009.5.405a5.018 5.018 0 00-4.723 3.34H2.82a.557.557 0 00-.556.557v1.67H.557A.557.557 0 000 6.527v11.207c0 .308.25.557.557.557h6.486l.95.95a.557.557 0 00.394.163h2.226c.148 0 .29-.059.394-.163l.95-.95h6.486c.308 0 .557-.25.557-.557V6.528a.557.557 0 00-.557-.557zm-2.82-1.113v10.094h-5.01c-.195 0-.382.034-.556.096v-2.86a4.732 4.732 0 012.026-2.49 4.99 4.99 0 002.396-4.84h1.144zM9.5 1.518a3.9 3.9 0 013.896 3.897 3.855 3.855 0 01-1.886 3.328 5.848 5.848 0 00-2.01 2.018 5.848 5.848 0 00-2.01-2.018 3.855 3.855 0 01-1.886-3.328A3.9 3.9 0 019.5 1.518zm-6.123 3.34h1.144a4.99 4.99 0 002.395 4.84 4.73 4.73 0 012.027 2.49v2.86a1.662 1.662 0 00-.556-.096h-5.01V4.858zm14.51 12.32h-6.16a.556.556 0 00-.394.163l-.95.95H8.617l-.95-.95a.557.557 0 00-.394-.163h-6.16V7.085h1.15v8.424c0 .307.25.556.557.556h5.567c.307 0 .556.25.556.557a.557.557 0 001.114 0c0-.307.25-.557.556-.557h5.567c.307 0 .556-.249.556-.556V7.085h1.15v10.093z"/></g><defs><clipPath id="clip0"><path fill="#fff" transform="translate(0 .405)" d="M0 0h19v19H0z"/></clipPath></defs></svg>