<svg xmlns="http://www.w3.org/2000/svg" id="Layer_1" data-name="Layer 1" viewBox="0 0 494.76 512"><defs><linearGradient id="linear-gradient" x1="182.8" y1="-1239.82" x2="503.25" y2="-919.36" gradientTransform="matrix(1 0 0 -1 0 -870.13)" gradientUnits="userSpaceOnUse"><stop offset="0" stop-color="#3236ee" stop-opacity=".1"/><stop offset="1" stop-color="#fd9530" stop-opacity=".1"/></linearGradient><style>.cls-5{fill:#3236ee}.cls-3{fill:#6582fd}.cls-8{fill:#feb567}.cls-9{fill:#e4862b}.cls-10{fill:#c1c0f9}.cls-11{fill:#d5d5fb}.cls-12{fill:#8298fd}.cls-14{fill:#ff9d33}.cls-17{fill:#fd9530}</style></defs><path d="M492.17 424.79c-20.85-85.18-76.46-173.87-36.23-260.51C486.07 99.4 512.32-16.81 408.5 2c-69.76 12.67-182 18.79-222.77 6.82-62.81-18.39-69.22 44.91-98.53 82.57-12.84 16.51-39.25 13-57.94 22.42-48.19 24.21-32 87 13.31 110.09 89.8 45.77 220.27 47.7 265.19 148.55 13 29.12 13.68 62.29 27.42 91.05 38.15 79.88 180.43 57.02 156.99-38.71Z" style="fill:url(#linear-gradient)"/><path d="m404 229-15.76-4.65L379 210.8a3.93 3.93 0 0 0-6.5 0l-9.29 13.55-15.8 4.65a3.83 3.83 0 0 0-2 1.35l-92-43.47a76.9 76.9 0 0 0 2.76-36.66 54.28 54.28 0 0 0 50-12c0 .06.08.12.13.19l13.78 17.91-.57 22.68a5.42 5.42 0 0 0 7.24 5.26l21.3-7.57 21.29 7.57a5.42 5.42 0 0 0 7.24-5.26l-.58-22.64 13.78-17.91a5.43 5.43 0 0 0-2.76-8.51l-21.68-6.39-12.82-18.65a5.43 5.43 0 0 0-8.95 0l-12.77 18.65-15.75 4.64a54.28 54.28 0 1 0-99.14-33.38 76.44 76.44 0 0 0-38.68-8.61 75.64 75.64 0 0 0-24.18 5 3.91 3.91 0 0 0-2.78-3.2l-15.76-4.64-9.29-13.56a3.94 3.94 0 0 0-6.5 0l-9.29 13.56L93.67 88a3.94 3.94 0 0 0-2 6.19l10 13-.45 16.43a3.94 3.94 0 0 0 5.26 3.82l7.36-2.62a76.59 76.59 0 0 0 32.51 106.9l-41 19.38a5 5 0 0 0-2.86 4.52v164.69a5 5 0 0 0 2.86 4.52l139.89 66.11a5 5 0 0 0 4.28 0l139.89-66.11a5 5 0 0 0 2.87-4.52V268.67a3.94 3.94 0 0 0 4.17-4L396 248.2l10-13a3.94 3.94 0 0 0-2-6.18Z" style="opacity:.1;isolation:isolate;fill:#3236ee"/><path class="cls-3" d="m348.05 152.64-21.3 7.57a5.42 5.42 0 0 1-7.24-5.26l.62-22.59-13.78-17.92a5.41 5.41 0 0 1 2.77-8.5l21.68-6.39 12.77-18.65a5.43 5.43 0 0 1 8.95 0l12.78 18.65 21.7 6.39a5.42 5.42 0 0 1 2.76 8.5L376 132.36l.62 22.59a5.42 5.42 0 0 1-7.24 5.26Z"/><path d="M324.27 101.46a54 54 0 0 1-8.35 25.43l-9.57-12.45a5.43 5.43 0 0 1 2.76-8.51Z" style="fill:#4369fc"/><path class="cls-5" d="m247.38 160-144.89 68.49L247.38 297Z"/><path d="M257.22 164.67a76.79 76.79 0 0 1-131 52.62L247.38 160Z" style="fill:#1c2077"/><path class="cls-3" d="M247.38 160v137l144.9-68.48Z"/><path d="M257.22 164.67a76.45 76.45 0 0 1-9.84 35.94V160Z" style="fill:#282bbf"/><circle class="cls-8" cx="273.08" cy="262.79" r="54.29"/><path class="cls-9" d="M251.74 255.2a5 5 0 0 1-5-5v-2.58a5 5 0 0 1 10 0v2.58a5 5 0 0 1-5 5ZM294.43 255.2a5 5 0 0 1-5-5v-2.58a5 5 0 1 1 10 0v2.58a5 5 0 0 1-5 5ZM273.08 298.11a27.68 27.68 0 0 1-27.65-27.65 5 5 0 0 1 10 0 17.65 17.65 0 0 0 35.3 0 5 5 0 0 1 10 0 27.68 27.68 0 0 1-27.65 27.65Z"/><path class="cls-10" d="M247.38 297v23.09l-5 7.24 5 8.13v9.31l-5 7.41 5 7.95V437l-5.06 2.61-134.83-63.76-5-7.36v-76.87l5-7.1-5-8.27V267l5-8.23-5-7.14v-23.14Z"/><path class="cls-11" d="M126.42 299.77v-9.67a4 4 0 0 0-2.29-3.62l-21.64-10.23v15.37l21.07 10a2 2 0 0 0 2.86-1.81ZM126.42 275.1v-9.68a4 4 0 0 0-2.29-3.61l-21.64-10.23V267l21.07 9.95a2 2 0 0 0 2.86-1.85Z"/><path class="cls-12" d="M102.49 368.49v31L247.38 468v-31Z"/><path d="M392.27 228.49v23.09l-5 8.42 5 8.67v7.58l-5 7.32 5 8.05v76.87l-4.56 7.16L251.46 440l-4.08-3v-76.91l5-7.52-5-7.84v-9.31l5-7.7-5-7.67V297Z" style="fill:#9897f6"/><path class="cls-10" d="M368.35 299.77v-9.67a4 4 0 0 1 2.29-3.62l21.64-10.23v15.37l-21.08 10a2 2 0 0 1-2.85-1.81ZM368.35 275.1v-9.68a4 4 0 0 1 2.29-3.61l21.64-10.23V267l-21.08 9.9a2 2 0 0 1-2.85-1.8Z"/><path class="cls-3" d="M392.28 368.49v31L247.38 468v-31Z"/><circle class="cls-8" cx="180.45" cy="138.94" r="76.81"/><path class="cls-14" d="m152.28 94.21-10 13 .45 16.43a3.94 3.94 0 0 1-5.26 3.82L122 122l-15.48 5.51a3.8 3.8 0 0 1-2 .16 76.71 76.71 0 0 1 27.36-48.17l2.68 3.91L150.27 88a3.94 3.94 0 0 1 2.01 6.21ZM257.25 138.93a75.81 75.81 0 0 1-.84 11.35 54.32 54.32 0 0 1-35.09-76.37 76.72 76.72 0 0 1 35.93 65.02Z"/><path class="cls-9" d="M180.45 183.61a43.8 43.8 0 0 1-43-36.86 5 5 0 1 1 9.88-1.52 33.53 33.53 0 0 0 66.27 0 5 5 0 1 1 9.89 1.52 43.81 43.81 0 0 1-43 36.86ZM153.1 128a5 5 0 0 1-5-5v-2.59a5 5 0 1 1 10 0V123a5 5 0 0 1-5 5ZM207.79 128a5 5 0 0 1-5-5v-2.59a5 5 0 1 1 10 0V123a5 5 0 0 1-5 5Z"/><circle class="cls-8" cx="270.11" cy="73.74" r="54.29"/><path class="cls-9" d="M248.77 66.15a5 5 0 0 1-5-5v-2.58a5 5 0 0 1 10 0v2.58a5 5 0 0 1-5 5ZM291.46 66.15a5 5 0 0 1-5-5v-2.58a5 5 0 1 1 10 0v2.58a5 5 0 0 1-5 5ZM270.11 109.06a27.69 27.69 0 0 1-27.65-27.65 5 5 0 0 1 10 0 17.65 17.65 0 1 0 35.3 0 5 5 0 1 1 10 0 27.68 27.68 0 0 1-27.65 27.65Z"/><path class="cls-12" d="m375.71 239-15.48 5.5a3.94 3.94 0 0 1-5.26-3.82l.45-16.43-10-13a3.94 3.94 0 0 1 2-6.18l15.76-4.65 9.29-13.55a3.93 3.93 0 0 1 6.5 0l9.29 13.55L404 205a3.94 3.94 0 0 1 2 6.18l-10 13 .46 16.43a4 4 0 0 1-5.27 3.82Z"/><path d="m122 98-15.48 5.51a3.94 3.94 0 0 1-5.26-3.82l.45-16.43-10-13a3.94 3.94 0 0 1 2-6.19l15.76-4.64 9.29-13.56a3.94 3.94 0 0 1 6.5 0l9.29 13.56L150.27 64a3.94 3.94 0 0 1 2 6.19l-10 13 .46 16.43a4 4 0 0 1-5.27 3.82Z" style="fill:#b6c4ff"/><path class="cls-5" d="M97.49 228.49v98.33a5 5 0 0 0 10 0v-95.16l38.89-18.38a81.75 81.75 0 0 0 115.87-74.35q0-3.24-.26-6.47a59 59 0 0 0 43.38-11.09l9.71 12.63-.57 20.82a10.45 10.45 0 0 0 10.42 10.71 10.32 10.32 0 0 0 3.5-.61L348 158l19.62 7a10.43 10.43 0 0 0 13.92-10.11L381 134l12.7-16.51a10.43 10.43 0 0 0-5.32-16.35l-20-5.89-11.74-17.18a10.43 10.43 0 0 0-17.19 0l-11.78 17.18L325 96a59.27 59.27 0 1 0-113.24-32.65 82.17 82.17 0 0 0-31.31-6.22 81.13 81.13 0 0 0-25.34 4 9 9 0 0 0-3.42-1.92l-14.06-4.15L129.35 43a8.94 8.94 0 0 0-14.75 0l-8.29 12.08-14 4.15a8.94 8.94 0 0 0-4.56 14l8.93 11.61-.4 14.65a8.87 8.87 0 0 0 8.22 9.13 81.75 81.75 0 0 0 31.16 98.66L100.35 224a5 5 0 0 0-2.86 4.52Zm234.72-124.15a5 5 0 0 0 2.71-2l12.77-18.63a.39.39 0 0 1 .36-.19.41.41 0 0 1 .35.18l12.78 18.64a5 5 0 0 0 2.71 2l21.67 6.39a.37.37 0 0 1 .28.27.38.38 0 0 1-.06.39L372 129.31a5 5 0 0 0-1 3.19l.62 22.58a.4.4 0 0 1-.18.37.39.39 0 0 1-.39.05l-21.3-7.57a5.06 5.06 0 0 0-3.35 0l-21.29 7.57a.37.37 0 0 1-.38-.05.4.4 0 0 1-.18-.36l.62-22.59a5 5 0 0 0-1-3.19l-11.22-14.58a57.7 57.7 0 0 0 5.22-6.24Zm-62.1-79.88a49.29 49.29 0 1 1-49.29 49.29 49.34 49.34 0 0 1 49.29-49.29ZM96.56 68.38l14.28-4.21a5 5 0 0 0 2.72-2L122 49.93l8.42 12.28a5 5 0 0 0 2.71 2l14.28 4.21-9.08 11.8a5 5 0 0 0-1 3.19l.4 14.88-14-5a5 5 0 0 0-3.35 0l-14 5 .41-14.88a5 5 0 0 0-1-3.19Zm12.08 70.55a71.8 71.8 0 0 1 8.53-33.93l4.8-1.71 13.81 4.91a8.94 8.94 0 0 0 11.93-8.67l-.4-14.65 8.94-11.61a9 9 0 0 0 1.29-2.38 71.85 71.85 0 0 1 53.29 3 59.37 59.37 0 0 0 40.88 56.22 71.81 71.81 0 1 1-143.07 8.84Z"/><path class="cls-5" d="M411.4 206a8.92 8.92 0 0 0-6-5.81l-14.06-4.14-8.25-12.05a8.94 8.94 0 0 0-14.75 0l-8.29 12.09L346 200.2a9.74 9.74 0 0 0-1.07.39l-63.18-29.86a5 5 0 0 0-4.28 9l62.12 29.36a9 9 0 0 0 1.85 5.1l8.93 11.61-.4 14.65a8.94 8.94 0 0 0 11.94 8.67l13.8-4.91 11.56 4.11v148l-139.89 66.1-139.89-66.11v-40a5 5 0 0 0-10 0v43.13a5 5 0 0 0 2.87 4.52l144.89 68.47a5 5 0 0 0 2.13.48 5 5 0 0 0 2.14-.48L394.41 404a5 5 0 0 0 2.86-4.52V248.29c.17-.11.34-.2.5-.32a8.93 8.93 0 0 0 3.68-7.48l-.4-14.65 8.95-11.61a8.92 8.92 0 0 0 1.4-8.23ZM392 221.15a5 5 0 0 0-1 3.19l.4 14.88-14-5a4.94 4.94 0 0 0-3.35 0l-14 5 .41-14.88a5 5 0 0 0-1-3.18l-9.08-11.8 14.28-4.21a5 5 0 0 0 2.72-2l8.41-12.28 8.42 12.28a5 5 0 0 0 2.71 2l14.28 4.21Z"/><path d="M122 326.25v30.86a5 5 0 0 0 2.87 4.52L182.75 389a3.5 3.5 0 0 0 5-3.16V355a5 5 0 0 0-2.86-4.52L127 323.08a3.51 3.51 0 0 0-5 3.17Z" style="fill:#fff"/><path class="cls-11" d="M223.45 311.9v9.68a4 4 0 0 0 2.29 3.61l21.64 10.23v-15.37l-21.07-10a2 2 0 0 0-2.86 1.81Z"/><path class="cls-10" d="M271.31 311.9v9.68a4 4 0 0 1-2.29 3.61l-21.64 10.23v-15.37l21.08-10a2 2 0 0 1 2.85 1.81Z"/><path class="cls-11" d="M223.45 336.58v9.67a4 4 0 0 0 2.29 3.62l21.64 10.22v-15.36l-21.07-10a2 2 0 0 0-2.86 1.81Z"/><path class="cls-10" d="M271.31 336.58v9.67a4 4 0 0 1-2.29 3.62l-21.64 10.22v-15.36l21.08-10a2 2 0 0 1 2.85 1.81Z"/><path class="cls-14" d="M125.82 479.38a5 5 0 0 1-5-5 6.34 6.34 0 0 0-6.33-6.33 5 5 0 1 1 0-10 6.34 6.34 0 0 0 6.33-6.33 5 5 0 0 1 10 0 6.34 6.34 0 0 0 6.33 6.33 5 5 0 1 1 0 10 6.34 6.34 0 0 0-6.33 6.33 5 5 0 0 1-5 5ZM48.42 82.49a5 5 0 0 1-5-5 6.35 6.35 0 0 0-6.34-6.34 5 5 0 1 1 0-10 6.35 6.35 0 0 0 6.34-6.33 5 5 0 0 1 10 0 6.34 6.34 0 0 0 6.33 6.33 5 5 0 0 1 0 10 6.34 6.34 0 0 0-6.33 6.34 5 5 0 0 1-5 5Z"/><path class="cls-17" d="M427.12 375.5a5 5 0 0 1-5-5 6.34 6.34 0 0 0-6.34-6.34 5 5 0 0 1 0-10 6.34 6.34 0 0 0 6.34-6.33 5 5 0 0 1 10 0 6.34 6.34 0 0 0 6.33 6.33 5 5 0 0 1 0 10 6.34 6.34 0 0 0-6.33 6.34 5 5 0 0 1-5 5ZM417.76 76.75a5 5 0 0 1-3.54-1.47l-5.46-5.46-5.47 5.46a5 5 0 1 1-7.07-7.07l9-9a5 5 0 0 1 7.07 0l9 9a5 5 0 0 1-3.53 8.54Z"/><path class="cls-3" d="M435.76 160.41a5 5 0 0 1-3.54-1.46l-5.46-5.47-5.47 5.52a5 5 0 1 1-7.07-7.07l9-9a5 5 0 0 1 7.07 0l9 9a5 5 0 0 1-3.53 8.53Z"/></svg>