<svg width="13" height="13" fill="none" xmlns="http://www.w3.org/2000/svg"><g clip-path="url(#clip0)"><path d="M12.841 12.075L9.144 8.38a5.12 5.12 0 001.148-3.233A5.152 5.152 0 005.146 0 5.152 5.152 0 000 5.146a5.152 5.152 0 005.146 5.146 5.12 5.12 0 003.232-1.148l3.697 3.697a.54.54 0 00.766 0 .541.541 0 000-.766zM5.146 9.208a4.067 4.067 0 01-4.063-4.062 4.067 4.067 0 014.063-4.063 4.067 4.067 0 014.062 4.063 4.067 4.067 0 01-4.062 4.062z" fill="#000" fill-opacity=".5"/></g><defs><clipPath id="clip0"><path fill="#fff" d="M0 0h13v13H0z"/></clipPath></defs></svg>