<svg xmlns="http://www.w3.org/2000/svg" id="Layer_1" data-name="Layer 1" viewBox="0 0 481.14 512"><defs><linearGradient id="linear-gradient" x1="86.8" y1="-1299.69" x2="480.36" y2="-906.12" gradientTransform="matrix(1 0 0 -1 0 -868.69)" gradientUnits="userSpaceOnUse"><stop offset="0" stop-color="#3236ee" stop-opacity=".1"/><stop offset="1" stop-color="#fd9530" stop-opacity=".1"/></linearGradient><style>.cls-3{fill:#3236ee}.cls-6{fill:#e4862b}.cls-8{fill:#fedfbd}.cls-10{fill:#febf7c}.cls-14{fill:#6582fd}.cls-15{fill:#4369fc}.cls-17{fill:#fd9530}.cls-20{fill:#ff9d33}</style></defs><path d="M39.8 161.18c38.78 53.48-21.43 86.2-35.24 135.89-28 100.61 79.2 64.39 143.9 60.4 86.24-5.3 100.18 133.76 179.5 152.36 73.91 17.33 130.89-73 96.64-134.94-82.55-149.31 55.28-176.47 48.65-300.55C462-136.39 234.4 175.85 101.53 99.17c-52.08-30.06-90.61 22.18-61.73 62Z" style="fill:url(#linear-gradient)"/><g style="opacity:.1"><path class="cls-3" d="M70.32 246.07H84v13.7a10 10 0 0 0 10 10h9.28a10 10 0 0 0 10-10v-13.7H127a10 10 0 0 0 10-10v-9.28a10 10 0 0 0-10-10h-13.7V203.1a10 10 0 0 0-10-10H94a10 10 0 0 0-10 10v13.69H70.32a10 10 0 0 0-10 10v9.28a10 10 0 0 0 10 10ZM466.14 271.45h-13.69v-13.69a10 10 0 0 0-10-10h-9.29a10 10 0 0 0-10 10v13.69h-13.69a10 10 0 0 0-10 10v9.29a10 10 0 0 0 10 10h13.69v13.69a10 10 0 0 0 10 10h9.29a10 10 0 0 0 10-10v-13.69h13.69a10 10 0 0 0 10-10v-9.29a10 10 0 0 0-10-10Z"/><path class="cls-3" d="M353.27 300.59v-21.15a57.64 57.64 0 0 0 36.65-45.36 22.54 22.54 0 0 0 19.15-40.4 85.59 85.59 0 0 0 11.41-42.43c0-36.45-11.06-57.89-18-67.75a9.29 9.29 0 0 0-11.21-3.25c-17 7.33-38.24-3.33-62-3.33-51.67 0-59.63 38.65-59.63 38.65s-26.12 10.26-26.12 38.25c0 20 5.8 34.07 10.42 42.08A22.54 22.54 0 0 0 276 234.08a57.64 57.64 0 0 0 36.65 45.36v21.15a78.33 78.33 0 0 0-9.13 4.31 191.48 191.48 0 0 0-100.68-28.42c-104.55 0-189.63 83.39-192.35 187.29a5 5 0 0 0 5 5.13h164.63a22.69 22.69 0 0 0 45.38 0h215.27a5 5 0 0 0 5-5.1c-2.29-130.33-92.5-163.21-92.5-163.21Z"/><path class="cls-3" d="M154.18 203.82h58.59a5 5 0 1 0 0-10h-58.59a5 5 0 0 0 0 10ZM179.47 183.44h33.3a5 5 0 1 0 0-10h-33.3a5 5 0 1 0 0 10ZM212.77 163.17a5 5 0 0 0 5-5v-.12a5 5 0 0 0-10 0v.12a5 5 0 0 0 5 5ZM196.43 163.17a5 5 0 0 0 5-5v-.12a5 5 0 0 0-10 0v.12a5 5 0 0 0 5 5Z"/></g><path d="M306.56 282.82a192.28 192.28 0 0 1 88.68 162.08h-64.55l-8.52-5H85.61l-10.61 5H10.4a192.25 192.25 0 0 1 88.68-162.08Z" style="fill:#8298fd"/><path d="M306.56 282.82 202.82 444.9 99.08 282.82a192.53 192.53 0 0 1 207.48 0Z" style="fill:#fdaa53"/><path class="cls-6" d="M257.11 289.36a54.29 54.29 0 1 1-98.27-31.83 194 194 0 0 1 88 0 54 54 0 0 1 10.31 31.83Z"/><path d="M133.88 337.19A127.75 127.75 0 0 0 75 444.9h41.1l10.64-5h153.31l9.48 5h41.16a127.79 127.79 0 0 0-58.93-107.71Z" style="fill:#d1ddff"/><path class="cls-8" d="M271.76 337.19 202.82 444.9l-68.94-107.71a128 128 0 0 1 137.88 0Z"/><path d="M244.6 324a54.28 54.28 0 0 1-83.6 0 128.36 128.36 0 0 1 83.56 0Z" style="fill:#feb567"/><circle class="cls-10" cx="202.82" cy="265.36" r="54.29"/><path class="cls-6" d="M181.47 257.77a5 5 0 0 1-5-5v-2.59a5 5 0 0 1 10 0v2.59a5 5 0 0 1-5 5ZM224.16 257.77a5 5 0 0 1-5-5v-2.59a5 5 0 0 1 10 0v2.59a5 5 0 0 1-5 5ZM202.82 300.67A27.68 27.68 0 0 1 175.17 273a5 5 0 0 1 10 0 17.65 17.65 0 1 0 35.3 0 5 5 0 0 1 10 0 27.68 27.68 0 0 1-27.65 27.67Z"/><path d="M156.06 371.86a86.65 86.65 0 0 0-40 73h173.47a86.64 86.64 0 0 0-40-73Z" style="fill:#b6c4ff"/><path d="m249.57 371.85-46.75 73-46.76-73a86.79 86.79 0 0 1 93.51 0Z" style="fill:#feca91"/><path d="M371 286c21.31 13.8 55.9 44.72 69.3 105.28l-33.72 53.62H259.32l-33.69-53.62c13.39-60.56 48-91.48 69.29-105.28Z" style="fill:#4e7fff"/><path class="cls-8" d="M225.63 391.28h41.69c-4 14.87-8 34.6-8 53.62h-39.25a247.09 247.09 0 0 1 5.56-53.62ZM445.83 444.9h-39.25c0-19-4-38.75-8-53.62h41.69a247.09 247.09 0 0 1 5.56 53.62ZM371 286a38.75 38.75 0 0 1-76.06 0 99 99 0 0 1 17.71-9.41v-46.27h40.64v46.26A99 99 0 0 1 371 286Z"/><path class="cls-3" d="M445.83 449.9a5 5 0 0 1-5-5c0-44.32-10.18-82.14-30.26-112.41a5 5 0 1 1 8.33-5.49c21.19 31.93 31.93 71.61 31.93 117.93a5 5 0 0 1-5 5Z"/><path class="cls-14" d="M405.37 175.54a85.72 85.72 0 0 0 15.11-48.29c0-36.43-11.05-57.87-18-67.73a9.27 9.27 0 0 0-11.23-3.26c-17 7.32-38.23-3.34-62-3.34-51.67 0-59.63 38.65-59.63 38.65s-26.12 10.26-26.12 38.25c0 23.5 8 38.77 12.68 45.72Z"/><circle class="cls-10" cx="269" cy="188.64" r="22.54"/><circle class="cls-10" cx="396.89" cy="188.64" r="22.54"/><path class="cls-8" d="M333 259.14a57.6 57.6 0 0 1-57.31-51.71l-3.43-33.33a61.06 61.06 0 1 1 121.48 0l-3.43 33.33A57.62 57.62 0 0 1 333 259.14Z"/><path class="cls-10" d="M333 192.72a7.41 7.41 0 0 0-6.73 4.3 2.19 2.19 0 0 0 2 3.12h9.49a2.19 2.19 0 0 0 2-3.12 7.42 7.42 0 0 0-6.76-4.3Z"/><path class="cls-14" d="M399.47 137.24v17c-8.46 0-16.38-.31-23.79-.87a43.15 43.15 0 0 1-20.37-7.16 77.75 77.75 0 0 1-11.5 2.82c-16 2.81-45.34 3.83-65.77-19.75A31.93 31.93 0 0 1 310 97.32h49.58c17.63 0 39.93 22.3 39.93 39.92Z"/><path class="cls-15" d="M305.6 187.78a5 5 0 0 1-5-5v-2.58a5 5 0 0 1 10 0v2.58a5 5 0 0 1-5 5ZM360.29 187.78a5 5 0 0 1-5-5v-2.58a5 5 0 0 1 10 0v2.58a5 5 0 0 1-5 5Z"/><path d="M350.27 232.51a25.3 25.3 0 0 0 7.31-12.43 5 5 0 0 0-4.87-6.13h-39.52a5 5 0 0 0-4.88 6.13 25.39 25.39 0 0 0 7.32 12.43Z" style="fill:#282bbf"/><path class="cls-10" d="M350.27 232.5a25.38 25.38 0 0 1-34.64 0c3.6-3.67 10-6.11 17.32-6.11s13.72 2.44 17.32 6.11Z"/><path class="cls-17" d="M225.52 444.48a22.7 22.7 0 0 1-45.4 0c0-7.68 8.53-57.94 15.13-95.69 1.48-8.48 13.65-8.48 15.13 0 6.62 37.75 15.14 88.01 15.14 95.69Z"/><circle cx="202.82" cy="444.9" r="5" style="fill:#ffdaec"/><path class="cls-17" d="M127 192.79h-13.7V179.1a10 10 0 0 0-10-10H94a10 10 0 0 0-10 10v13.69H70.32a10 10 0 0 0-10 10v9.28a10 10 0 0 0 10 10H84v13.7a10 10 0 0 0 10 10h9.28a10 10 0 0 0 10-10v-13.7H127a10 10 0 0 0 10-10v-9.28a10 10 0 0 0-10-10Z"/><path d="M466.14 247.45h-13.69v-13.69a10 10 0 0 0-10-10h-9.29a10 10 0 0 0-10 10v13.69h-13.69a10 10 0 0 0-10 10v9.29a10 10 0 0 0 10 10h13.69v13.69a10 10 0 0 0 10 10h9.29a10 10 0 0 0 10-10v-13.69h13.69a10 10 0 0 0 10-10v-9.29a10 10 0 0 0-10-10Z" style="fill:#5a5bf1"/><path class="cls-3" d="M117.71 266.73A197.43 197.43 0 0 0 5.4 444.9a5 5 0 0 0 10 0c0-71.76 41.85-138.16 106.63-169.15a5 5 0 0 0-4.32-9ZM276.86 362.2a5 5 0 0 0-6.47 2.84c-.65 1.69-16.07 41.75-16.07 79.86a5 5 0 0 0 10 0c0-36.2 15.24-75.84 15.39-76.23a5 5 0 0 0-2.85-6.47ZM389 362.2a5 5 0 0 0-2.85 6.47c.16.39 15.39 40 15.39 76.23a5 5 0 0 0 10 0c0-38.11-15.41-78.17-16.07-79.86a5 5 0 0 0-6.47-2.84ZM154.18 179.82h58.59a5 5 0 1 0 0-10h-58.59a5 5 0 0 0 0 10ZM179.47 159.44h33.3a5 5 0 1 0 0-10h-33.3a5 5 0 1 0 0 10ZM212.77 139.17a5 5 0 0 0 5-5v-.12a5 5 0 0 0-10 0v.12a5 5 0 0 0 5 5ZM196.43 139.17a5 5 0 0 0 5-5v-.12a5 5 0 0 0-10 0v.12a5 5 0 0 0 5 5ZM127 187.79h-8.7v-8.69a15 15 0 0 0-15-15H94a15 15 0 0 0-15 15v8.69h-8.68a15 15 0 0 0-15 15v9.28a15 15 0 0 0 15 15H79v8.7a15 15 0 0 0 15 15h9.28a15 15 0 0 0 15-15v-8.7H127a15 15 0 0 0 15-15v-9.28a15 15 0 0 0-15-15Zm5 24.28a5 5 0 0 1-5 5h-13.7a5 5 0 0 0-5 5v13.7a5 5 0 0 1-5 5H94a5 5 0 0 1-5-5v-13.7a5 5 0 0 0-5-5H70.32a5 5 0 0 1-5-5v-9.28a5 5 0 0 1 5-5H84a5 5 0 0 0 5-5V179.1a5 5 0 0 1 5-5h9.28a5 5 0 0 1 5 5v13.69a5 5 0 0 0 5 5H127a5 5 0 0 1 5 5v9.28Z"/><path class="cls-3" d="M392.83 310.45a5 5 0 0 0 7.16-7c-17.7-18.19-34.74-27.06-41.72-30.2v-14.42A62.4 62.4 0 0 0 393.86 216a27.51 27.51 0 0 0 21.62-47.65 90.38 90.38 0 0 0 10-41.1c0-38-11.84-60.57-18.89-70.6a14.33 14.33 0 0 0-17.3-5c-8.91 3.85-19.79 1.85-32.39-.46-8.78-1.61-17.86-3.28-27.67-3.28-28.56 0-44.56 11.44-53 21A54.55 54.55 0 0 0 265.4 88c-7 3.49-26.92 15.7-26.92 41.83 0 18.52 4.72 32.28 9.31 41.29A27.52 27.52 0 0 0 269 216.19a25.68 25.68 0 0 0 3-.19 62.38 62.38 0 0 0 35.6 42.84v14.43c-1.09.48-2.44 1.13-4 1.9a196.91 196.91 0 0 0-42.24-18.81 59.41 59.41 0 1 0 .64 10.69 187 187 0 0 1 31.53 13.86 150.64 150.64 0 0 0-25.44 20.3c-16.36 16.15-36.19 43.11-46.34 84.49q-2.81-16.62-6.5-37.76a12.68 12.68 0 0 0-25 0c-10.09 57.68-15.2 90.17-15.2 96.54a27.7 27.7 0 1 0 55.39 0c0-3.19-1.28-12.92-3.82-29.07 6.2-54.78 29.56-88.26 48.12-106.73 20.24-20.14 39.35-27.32 39.53-27.39a5 5 0 0 0 3.29-4.7v-14.34a63 63 0 0 0 30.64 0v14.34a5 5 0 0 0 3.27 4.69c.21.08 20.39 7.69 41.29 29.17Zm-190 4.2a49.29 49.29 0 1 1 49.29-49.29 49.34 49.34 0 0 1-49.3 49.29Zm0 147.53a17.72 17.72 0 0 1-17.7-17.7c0-2.63 1.47-17.13 15.06-94.82a2.68 2.68 0 0 1 5.28 0c13.59 77.69 15.06 92.19 15.06 94.82a17.72 17.72 0 0 1-17.7 17.7Zm194.07-256q-.74 0-1.47-.06l3.24-31.52c.12-1.13.21-2.26.26-3.38a17.54 17.54 0 0 1-2 35Zm-127.89 0a17.54 17.54 0 0 1-2-35c.06 1.13.14 2.26.26 3.39l3.24 31.51a14.52 14.52 0 0 1-1.48.07Zm-1.76-45a27.36 27.36 0 0 0-11.53 3.38c-3.71-7.93-7.23-19.47-7.23-34.72 0-24.13 22-33.23 23-33.59a5 5 0 0 0 3.06-3.63c.31-1.41 8-34.68 54.74-34.68 8.9 0 17.52 1.58 25.87 3.12 13.6 2.49 26.45 4.85 38.15-.2a4.29 4.29 0 0 1 5.16 1.56c6.37 9.07 17.07 29.56 17.07 64.85A80.2 80.2 0 0 1 407 163a27.57 27.57 0 0 0-8.29-1.86c-.1-1-.23-2-.38-3a5 5 0 0 0-3-8.93c-6.37-.08-12.67-.34-18.72-.78a38.73 38.73 0 0 1-31.7-21.43 5 5 0 0 0-9 4.45 48.61 48.61 0 0 0 8.7 12.25c-14.5 2.78-43.38 4.71-62.84-17.75a5 5 0 0 0-7.55 6.55c.56.65 1.13 1.28 1.7 1.89a66.14 66.14 0 0 0-8.72 26.75Zm65.71 93a52.47 52.47 0 0 1-52.34-47.22l-3.43-33.33a56.17 56.17 0 0 1 6.35-32.22c14.17 11.09 30.38 14.15 44 14.15a98.62 98.62 0 0 0 27.15-3.89 48.31 48.31 0 0 0 21.2 6.74c4.07.29 8.24.51 12.47.64a55.27 55.27 0 0 1 .7 8.73 57.89 57.89 0 0 1-.3 5.85l-3.43 33.33A52.49 52.49 0 0 1 333 254.14Z"/><path class="cls-3" d="M466.14 242.45h-8.69v-8.69a15 15 0 0 0-15-15h-9.29a15 15 0 0 0-15 15v8.69h-8.69a15 15 0 0 0-15 15v9.29a15 15 0 0 0 15 15h8.69v8.69a15 15 0 0 0 15 15h9.29a15 15 0 0 0 15-15v-8.69h8.69a15 15 0 0 0 15-15v-9.29a15 15 0 0 0-15-15Zm5 24.29a5 5 0 0 1-5 5h-13.69a5 5 0 0 0-5 5v13.69a5 5 0 0 1-5 5h-9.29a5 5 0 0 1-5-5v-13.69a5 5 0 0 0-5-5h-13.69a5 5 0 0 1-5-5v-9.29a5 5 0 0 1 5-5h13.69a5 5 0 0 0 5-5v-13.69a5 5 0 0 1 5-5h9.29a5 5 0 0 1 5 5v13.69a5 5 0 0 0 5 5h13.69a5 5 0 0 1 5 5Z"/><path class="cls-20" d="M101.94 114a5 5 0 0 1-5-5 6.35 6.35 0 0 0-6.33-6.34 5 5 0 1 1 0-10 6.34 6.34 0 0 0 6.33-6.33 5 5 0 0 1 10 0 6.34 6.34 0 0 0 6.34 6.33 5 5 0 0 1 0 10 6.35 6.35 0 0 0-6.34 6.34 5 5 0 0 1-5 5Z"/><path class="cls-14" d="M257.11 54.26a5 5 0 0 1-5-5 6.34 6.34 0 0 0-6.33-6.33 5 5 0 1 1 0-10 6.35 6.35 0 0 0 6.33-6.34 5 5 0 1 1 10 0 6.35 6.35 0 0 0 6.33 6.34 5 5 0 0 1 0 10 6.34 6.34 0 0 0-6.33 6.33 5 5 0 0 1-5 5Z"/><path class="cls-17" d="M147.1 141.83a4.94 4.94 0 0 1-3.53-1.46l-5.47-5.46-5.46 5.46a5 5 0 0 1-7.07-7.07l9-9a5 5 0 0 1 7.07 0l9 9a5 5 0 0 1-3.54 8.53Z"/><path class="cls-14" d="M467.05 339.84a5 5 0 0 1-3.54-1.46l-5.46-5.47-5.47 5.47a5 5 0 1 1-7.07-7.07l9-9a5 5 0 0 1 7.07 0l9 9a5 5 0 0 1-3.53 8.53Z"/><path class="cls-20" d="M32.46 274.86a5 5 0 0 1-3.53-1.47l-5.47-5.46-5.46 5.46a5 5 0 1 1-7.07-7.07l9-9a5 5 0 0 1 7.07 0l9 9a5 5 0 0 1-3.54 8.54Z"/></svg>