<svg width="19" height="20" fill="none" xmlns="http://www.w3.org/2000/svg"><path d="M18.803 4.975a.403.403 0 00-.399-.007l-4.359 2.38V5.92a2.015 2.015 0 00-2.013-2.013H2.012A2.015 2.015 0 000 5.92v7.947a2.015 2.015 0 002.013 2.013h10.02a2.015 2.015 0 002.012-2.013v-1.402l4.36 2.38a.403.403 0 00.595-.353V5.32a.402.402 0 00-.197-.346zm-5.563 8.892c-.001.667-.541 1.207-1.208 1.208H2.012c-.666-.001-1.206-.541-1.207-1.208V5.92c0-.667.541-1.207 1.208-1.208h10.02A1.21 1.21 0 0113.24 5.92v7.947zm4.955-.054l-4.15-2.266V8.265L18.195 6v7.813z" fill="#8898AA"/></svg>