<svg width="19" height="20" fill="none" xmlns="http://www.w3.org/2000/svg"><g clip-path="url(#clip0)" fill="#8898AA"><path d="M6.474 7.453a.257.257 0 01-.186-.08c-.257-.267-1.095-1.223-1.134-2.297a.257.257 0 01.062-.176.241.241 0 00.054-.13c-.002-.014-.026-.032-.034-.039a.257.257 0 01-.106-.22.786.786 0 01.225-.513.93.93 0 00-.086-.112.257.257 0 01-.031-.31l.085-.137c.03-.235.173-1.027.745-1.414a1.335 1.335 0 011.027-.186c.137-.323.365-.6.657-.796C8.286.686 9.004.593 9.889.77c2.257.451 2.791 1.273 3.077 1.809a.92.92 0 01.46.415c.071.148.09.315.056.475.178.182.3.41.354.659.091.399.04 2.24-1.151 3.192a.257.257 0 01-.414-.238c.015-.101.027-.2.036-.298a1.458 1.458 0 00-1.433-1.595 4.279 4.279 0 01-1.955-.536l-.061-.033a1.442 1.442 0 00-1.423.05 1.456 1.456 0 00-.705 1.255v1.271a.257.257 0 01-.256.257zM5.672 5.14c.067.484.255.943.545 1.335v-.55a1.974 1.974 0 012.875-1.76l.068.037a3.774 3.774 0 001.72.476 1.973 1.973 0 011.933 1.746 3.623 3.623 0 00.52-2.19.938.938 0 00-.303-.483.259.259 0 01-.077-.297.265.265 0 00.012-.233.472.472 0 00-.252-.189.256.256 0 01-.156-.128c-.25-.48-.628-1.201-2.768-1.63-.745-.147-1.334-.082-1.748.197a1.28 1.28 0 00-.524.724.257.257 0 01-.328.195.932.932 0 00-.83.059c-.458.308-.53 1.09-.53 1.098a.259.259 0 01-.038.114l-.02.032a.598.598 0 01.127.433.36.36 0 01-.206.257.13.13 0 00-.027.052.536.536 0 01.116.273.69.69 0 01-.109.432zM5.47 3.923l-.008.003.008-.003z"/><path d="M9.507 11.629c-1.018-.028-1.702-.751-2.365-1.451l-.212-.224a2.651 2.651 0 01-.713-1.888V7.12a.257.257 0 01.514 0v.965c-.012.558.191 1.1.569 1.512l.216.227c.616.652 1.2 1.269 1.99 1.29.777-.021 1.361-.638 1.978-1.29l.215-.227c.375-.407.579-.943.57-1.496V7.12a.257.257 0 11.514 0v.965a2.645 2.645 0 01-.713 1.87l-.213.223c-.662.7-1.347 1.424-2.35 1.452z"/><path d="M6.36 8.429c-.525 0-.95-.514-.95-1.144a1.24 1.24 0 01.382-.92.257.257 0 01.342.384.721.721 0 00-.211.536c0 .365.241.667.485.626a.257.257 0 01.085.507.82.82 0 01-.134.01zM12.64 8.429a.797.797 0 01-.134-.012.257.257 0 01.086-.506c.243.041.485-.26.485-.626a.722.722 0 00-.21-.536.257.257 0 01.342-.383 1.24 1.24 0 01.382.919c0 .63-.427 1.144-.95 1.144zM8.394 14.257H8.37a.256.256 0 01-.193-.117l-1.165-1.816a.257.257 0 01.009-.29l.436-.594a.257.257 0 01.35-.062l1.835 1.221a.256.256 0 01.044.387l-1.105 1.189a.256.256 0 01-.188.082zm-.854-2.063l.891 1.39.675-.726-1.38-.918-.186.254z"/><path d="M10.605 14.257a.257.257 0 01-.188-.082l-1.105-1.189a.256.256 0 01.045-.388l1.836-1.222a.257.257 0 01.349.062l.437.594a.256.256 0 01.009.29l-1.166 1.817a.257.257 0 01-.217.118zm-.712-1.4l.675.726.891-1.39-.186-.253-1.38.918z"/><path d="M15.76 19.238H2.983a.95.95 0 01-.95-.95v-2.291a3.361 3.361 0 012.38-3.227l2.788-.815a.257.257 0 01.144.493l-2.783.814a2.85 2.85 0 00-2.015 2.735v2.291a.437.437 0 00.436.436H15.76a.436.436 0 00.437-.436V15.74a2.85 2.85 0 00-2.019-2.736l-2.461-.54a.257.257 0 11.11-.5l2.482.543a3.366 3.366 0 012.401 3.232v2.55a.95.95 0 01-.95.95z"/><path d="M9.5 13.067c-.05 0-.1-.014-.142-.043l-1.835-1.219a.256.256 0 01-.111-.253l.168-1.079a.257.257 0 11.508.08l-.144.917L9.5 12.502l1.557-1.034-.145-.918a.256.256 0 01.406-.248.256.256 0 01.101.17l.17 1.078a.257.257 0 01-.112.253l-1.836 1.22a.257.257 0 01-.141.044zM14.838 16.843a.27.27 0 01-.057-.006l-.418-.094a.257.257 0 11.114-.501l.167.038.183-.809a.95.95 0 10-1.852-.42l-.183.81.167.037a.257.257 0 01-.113.501l-.419-.096a.255.255 0 01-.197-.207.257.257 0 01.003-.1l.24-1.06a1.464 1.464 0 012.855.647l-.24 1.06a.256.256 0 01-.25.2zM4.652 14.742a.257.257 0 01-.25-.2l-.314-1.418a.257.257 0 01.502-.111l.313 1.417a.257.257 0 01-.25.312z"/><path d="M14.18 14.342a.255.255 0 01-.253-.211.258.258 0 01.003-.101l.274-1.255a.257.257 0 01.502.11l-.274 1.255a.256.256 0 01-.251.202zM5.023 16.55a1.199 1.199 0 110-2.398 1.199 1.199 0 010 2.398zm0-1.884a.684.684 0 10-.001 1.369.684.684 0 000-1.369z"/><path d="M5.023 15.74a.388.388 0 100-.777.388.388 0 000 .776z"/><path d="M5.023 15.868a.517.517 0 110-1.033.517.517 0 010 1.033zm0-.777a.259.259 0 00-.255.311.26.26 0 10.255-.31z"/></g><defs><clipPath id="clip0"><path fill="#fff" transform="translate(0 .405)" d="M0 0h19v19H0z"/></clipPath></defs></svg>